<svg id="Layer_1" data-name="Layer 1" xmlns="http://www.w3.org/2000/svg" xmlns:xlink="http://www.w3.org/1999/xlink" viewBox="0 0 4500 2500"><defs><style>.cls-1{fill:none;}.cls-2{fill:#aed3f0;}.cls-3{fill:#c3dcf3;}.cls-17,.cls-18,.cls-19,.cls-20,.cls-21,.cls-22,.cls-23,.cls-24,.cls-25,.cls-3,.cls-31,.cls-32,.cls-33{fill-rule:evenodd;}.cls-4{clip-path:url(#clip-path);}.cls-5,.cls-6{fill:#fff;}.cls-5{fill-opacity:0.45;}.cls-6{fill-opacity:0.55;}.cls-7{fill:#e68913;}.cls-8{fill:#ff9e23;}.cls-9{fill:#ffb43f;}.cls-10{fill:#cb8927;}.cls-11{clip-path:url(#clip-path-2);}.cls-12{fill:#b27822;}.cls-13{fill:#dfa857;}.cls-14{fill:#ebd063;}.cls-15{fill:#cf8c56;}.cls-16{fill:#d3a75d;}.cls-17{fill:url(#linear-gradient);}.cls-18{fill:url(#linear-gradient-2);}.cls-19{fill:#034d49;}.cls-20{fill:#ffc787;}.cls-21,.cls-22,.cls-23{fill:#ffab65;}.cls-22{fill-opacity:0.99;}.cls-23{fill-opacity:0.81;}.cls-24{fill:#44ae9e;}.cls-25{fill:#317e73;}.cls-26{clip-path:url(#clip-path-3);}.cls-27{clip-path:url(#clip-path-4);}.cls-28{clip-path:url(#clip-path-5);}.cls-29{clip-path:url(#clip-path-6);}.cls-30{clip-path:url(#clip-path-7);}.cls-31{fill:#87405c;}.cls-32{fill:#ec6198;}.cls-33{fill:#e7347a;}</style><clipPath id="clip-path"><rect class="cls-1" width="4500" height="2500"/></clipPath><clipPath id="clip-path-2"><path class="cls-1" d="M3849.57,1501c31.93-109.34,143.37-219.48,249-246,49.63-12.51,89.11-4.27,113.7,19.29,1.47,1.41,44.79,50,46.16,51.51,24.3,27.07-10.56,24.22-26.57,79-31.91,109.33-143.4,219.46-249,246-52.45,13.18-51.69,50.32-75.89,23.6-1.32-1.49-44.49-50.12-45.75-51.73-21.33-27.33-26.83-69.76-11.65-121.72"/></clipPath><linearGradient id="linear-gradient" x1="1290.51" y1="1789.32" x2="1291.69" y2="1789.32" gradientTransform="matrix(-1939.15, 365.35, 365.35, 1939.15, 1850451.45, -3939418.54)" gradientUnits="userSpaceOnUse"><stop offset="0" stop-opacity="0"/><stop offset="1"/></linearGradient><linearGradient id="linear-gradient-2" x1="1289.54" y1="1789.96" x2="1290.73" y2="1789.96" gradientTransform="matrix(2247.15, 1556.8, 1556.8, -2247.15, -5681786.64, 2015901.57)" xlink:href="#linear-gradient"/><clipPath id="clip-path-3"><path class="cls-1" d="M2620.91,1055c157.14-9.37,341.59-131.41,412.05-272.63,33.14-66.38,35.14-125.16,11.67-167.85-1.41-2.55-52.21-80.07-53.82-82.52-28.27-43.42-36,7-114.74,11.73C2719,553.1,2534.51,675.2,2464,816.38c-35,70.15-84.53,56.85-56.69,100,1.56,2.38,52.5,79.7,54.24,82,29.61,39.28,84.68,61.07,159.34,56.61"/></clipPath><clipPath id="clip-path-4"><path class="cls-1" d="M1474,928.3c-89.32-5.33-194.16-74.69-234.21-155-18.83-37.73-20-71.14-6.63-95.41.8-1.44,29.67-45.5,30.59-46.9,16.07-24.68,20.44,4,65.22,6.67,89.29,5.31,194.14,74.71,234.2,154.95,19.89,39.88,48,32.32,32.23,56.85-.89,1.35-29.85,45.3-30.84,46.62-16.82,22.33-48.12,34.71-90.56,32.18"/></clipPath><clipPath id="clip-path-5"><path class="cls-1" d="M2144.46,161.62c88.68,128.79,286.57,222.9,442.08,210.23,73.12-5.94,123.8-34.46,147.81-76.35,1.42-2.5,40.8-85.54,42.05-88.17,22.15-46.36-24.43-27-68.88-91.53C2618.88-13,2420.93-107,2265.43-94.42c-77.24,6.3-91.47-42.66-113.63,3.2-1.21,2.55-40.35,85.6-41.41,88.27-18,45.36-8.08,103.38,34.07,164.57"/></clipPath><clipPath id="clip-path-6"><path class="cls-1" d="M1826.92,242.9c-75.44,109.56-243.79,189.62-376.09,178.84-62.2-5.05-105.31-29.31-125.73-64.95-1.22-2.13-34.72-72.77-35.78-75-18.84-39.43,20.78-22.93,58.6-77.86C1423.32,94.38,1591.72,14.34,1724,25.08c65.72,5.36,77.82-36.28,96.67,2.72,1,2.17,34.32,72.82,35.23,75.1,15.29,38.59,6.87,87.94-29,140"/></clipPath><clipPath id="clip-path-7"><path class="cls-1" d="M161.09,1384.59C7.87,1297.14-136.31,1084.36-161,909.25c-11.62-82.33,5.29-141.63,42.34-172.29,2.21-1.83,77.64-53.45,80-55.09,42.07-29,33.49,24.87,110.31,68.7C224.9,838,369.06,1050.82,393.78,1225.91c12.24,87,65.78,98.43,24.23,127.4-2.32,1.59-77.82,52.94-80.3,54.38-42.06,24.23-103.81,18.46-176.62-23.1"/></clipPath></defs><g id="c83"><rect class="cls-2" width="4500" height="2500"/><path class="cls-3" d="M0,1802.34V2500h3563.8c-59.35-101.47-134.55-204.56-242.7-301.52-292.65-262.49-678.8-362.81-1054.42-432.84C1567.57,1635.32,649.75,2065.42,0,1802.34ZM4500,656.48V0H1733.14c63.78,33.84,127,67.62,189.76,100.32C2694,502.18,3629.22,1015.88,4500,656.48Z"/><rect class="cls-1" width="4500" height="2500"/><g class="cls-4"><rect class="cls-5" x="-104.54" y="1490.39" width="2436.77" height="16.66"/><rect class="cls-5" x="-104.54" y="1644.93" width="2436.77" height="16.66"/><rect class="cls-5" x="-104.54" y="1799.48" width="2436.77" height="16.66"/><rect class="cls-5" x="-104.54" y="1954.02" width="2436.77" height="16.66"/><rect class="cls-5" x="-104.54" y="2108.56" width="2436.77" height="16.66"/><rect class="cls-5" x="-104.54" y="2263.1" width="2436.77" height="16.66"/><rect class="cls-5" x="-104.54" y="2417.65" width="2436.77" height="16.66"/><rect class="cls-6" x="56.83" y="1320.97" width="13.53" height="1291.46"/><rect class="cls-6" x="215.91" y="1320.97" width="13.53" height="1291.46"/><rect class="cls-6" x="374.99" y="1320.97" width="13.53" height="1291.46"/><rect class="cls-6" x="534.07" y="1320.97" width="13.53" height="1291.46"/><rect class="cls-6" x="693.15" y="1320.97" width="13.53" height="1291.46"/><rect class="cls-6" x="852.23" y="1320.97" width="13.53" height="1291.46"/><rect class="cls-6" x="1011.32" y="1320.97" width="13.53" height="1291.46"/><rect class="cls-6" x="1170.4" y="1320.97" width="13.53" height="1291.46"/><rect class="cls-6" x="1329.48" y="1320.97" width="13.53" height="1291.46"/><rect class="cls-6" x="1488.56" y="1320.97" width="13.53" height="1291.46"/><rect class="cls-6" x="1647.64" y="1320.97" width="13.53" height="1291.46"/><rect class="cls-6" x="1806.71" y="1320.97" width="13.53" height="1291.46"/><rect class="cls-6" x="1965.8" y="1320.97" width="13.53" height="1291.46"/><rect class="cls-6" x="2124.88" y="1320.97" width="13.53" height="1291.46"/><rect class="cls-5" x="2153.89" y="1490.69" width="2436.77" height="16.66"/><rect class="cls-5" x="2153.89" y="1645.23" width="2436.77" height="16.66"/><rect class="cls-5" x="2153.89" y="1799.77" width="2436.77" height="16.66"/><rect class="cls-5" x="2153.89" y="1954.31" width="2436.77" height="16.66"/><rect class="cls-5" x="2153.89" y="2108.86" width="2436.77" height="16.66"/><rect class="cls-5" x="2153.89" y="2263.4" width="2436.77" height="16.66"/><rect class="cls-5" x="2153.89" y="2417.94" width="2436.77" height="16.66"/><rect class="cls-6" x="2315.26" y="1321.27" width="13.53" height="1291.46"/><rect class="cls-6" x="2474.34" y="1321.27" width="13.53" height="1291.46"/><rect class="cls-6" x="2633.42" y="1321.27" width="13.53" height="1291.46"/><rect class="cls-6" x="2792.5" y="1321.27" width="13.53" height="1291.46"/><rect class="cls-6" x="2951.59" y="1321.27" width="13.53" height="1291.46"/><rect class="cls-6" x="3110.67" y="1321.27" width="13.53" height="1291.46"/><rect class="cls-6" x="3269.75" y="1321.27" width="13.53" height="1291.46"/><rect class="cls-6" x="3428.83" y="1321.27" width="13.53" height="1291.46"/><rect class="cls-6" x="3587.91" y="1321.27" width="13.53" height="1291.46"/><rect class="cls-6" x="3746.99" y="1321.27" width="13.53" height="1291.46"/><rect class="cls-6" x="3906.07" y="1321.27" width="13.53" height="1291.46"/><rect class="cls-6" x="4065.14" y="1321.27" width="13.53" height="1291.46"/><rect class="cls-6" x="4224.24" y="1321.27" width="13.53" height="1291.46"/><rect class="cls-6" x="4383.31" y="1321.27" width="13.53" height="1291.46"/><g id="path4476"><path class="cls-7" d="M3864.34,1482.57c25.18-86.18,113.07-173,196.28-194s130.3,32,105.1,118.15-113.05,173-196.28,194-130.28-32-105.1-118.15"/></g><g id="path4478"><path class="cls-8" d="M3962.69,1593.13c83.23-21,171.09-107.81,196.28-194,11.85-40.56,7.7-73.72-8.67-95.3-19.4-18.63-50.53-25.12-89.68-15.26-83.21,20.94-171.1,107.81-196.28,194-11.83,40.53-7.71,73.72,8.66,95.29,19.4,18.63,50.55,25.11,89.69,15.27"/></g><g id="path4480"><path class="cls-7" d="M4017.69,1373.17l-12.13,41.49C3985.64,1412,3995.45,1383.74,4017.69,1373.17ZM4003,1504.05l11.45-39.27C4031.2,1466.94,4025.19,1491.86,4003,1504.05Zm-15.62,52.47,2.7-9.26c74.45-22.1,113.51-128.77,38.15-129.58l15.66-53.62q12.47-.63,21.65,3.91c7.66,3.76,20.54-1.22,30.17-12,9.26-10.4,15.2-19.25,10.85-25.44-1-1.36-5.17-5.67-6.86-6.41-11.11-4.61-26.56-5.88-43.66-1.55l7.57-5.62c.58-2-4.69-6.81-5.56-7.79s-2.38-1.38-4.29-.88l-11.23,2.81c-3.83,1-7.88,5-9,9l-2.68,9.15c-39,16.2-67.72,44.65-78.08,80q-14.62,50.08,38.68,53.86L3978,1509.17a26.27,26.27,0,0,1-9-2.43c-7.78-3.5-20.72,1.9-30.23,12.59-12.33,13.78-13.41,31.21-2.33,34.25,8.18,2.27,17.38,1.51,28.19-.22l-2.8,9.59c-.55,1.88-.29,3.37.58,4.25s5,7,6.7,6.57l10-9.09a12.88,12.88,0,0,0,8.26-8.16"/></g><g id="path4482"><path class="cls-9" d="M4022.76,1378.86l-12.13,41.5C3990.71,1417.67,4000.52,1389.43,4022.76,1378.86Zm-14.67,130.88,11.46-39.27C4036.26,1472.63,4030.26,1497.55,4008.09,1509.74Zm-15.61,52.48,2.7-9.27c74.45-22.1,113.51-128.77,38.14-129.57l15.66-53.63q12.46-.63,21.65,3.91c7.66,3.76,20.57-1.2,30.2-12,11.27-12.71,13.35-27.91,4-31.88-11.12-4.61-26.57-5.88-43.67-1.55l2.58-8.83c1.15-4-1-6.44-4.86-5.46l-11.22,2.81c-3.84,1-7.89,5-9.06,9l-2.68,9.15c-39,16.2-67.72,44.65-78.07,80q-14.62,50.1,38.68,53.86L3983,1514.86a26.25,26.25,0,0,1-9-2.42c-7.77-3.51-20.7,1.91-30.23,12.58-12.32,13.79-13.7,30.17-2.59,33.23,8.15,2.24,17.64,2.53,28.46.8l-2.8,9.59c-1.08,3.65.91,5.88,4.43,5l12.89-3.24c3.5-.87,7.21-4.54,8.26-8.16"/></g><g id="path4484"><path class="cls-10" d="M3849.57,1501c31.93-109.34,143.37-219.48,249-246,49.63-12.51,89.11-4.27,113.7,19.29,1.49,1.43,44.79,50,46.16,51.51,24.3,27.07-10.54,24.2-26.57,79-31.93,109.3-143.4,219.46-249,246-52.45,13.18-51.69,50.32-75.89,23.6-1.32-1.49-44.49-50.12-45.75-51.73-21.33-27.33-26.83-69.76-11.65-121.72"/></g><g id="g4486"><g id="g4488"><g class="cls-11"><path id="path4494" class="cls-12" d="M4184.56,1243.59a3.85,3.85,0,0,1,5.62.16l78.81,88.6a4.38,4.38,0,0,1-.21,5.91,3.84,3.84,0,0,1-5.62-.16l-78.81-88.59a4.34,4.34,0,0,1,.21-5.92"/><path id="path4496" class="cls-12" d="M4245.35,1338.55,4166.56,1250a4.39,4.39,0,0,1,0-5.69l.27-.27a3.86,3.86,0,0,1,5.64.13l78.79,88.58a4.39,4.39,0,0,1-.21,6l-.3.24a3.85,3.85,0,0,1-5.38-.38"/><path id="path4498" class="cls-12" d="M4227.53,1339l-78.75-88.53a4.45,4.45,0,0,1,0-5.78l.26-.29a3.91,3.91,0,0,1,5.7.16l78.74,88.52a4.45,4.45,0,0,1-.21,6l-.29.25a3.92,3.92,0,0,1-5.48-.34"/><path id="path4500" class="cls-12" d="M4209.71,1339.44,4131,1251a4.46,4.46,0,0,1,.05-5.84l.28-.32a3.93,3.93,0,0,1,5.72.18l78.71,88.48a4.43,4.43,0,0,1-.22,6l-.29.29a3.94,3.94,0,0,1-5.55-.32"/><path id="path4538" class="cls-12" d="M3864.84,1416.14l.32-.32a4,4,0,0,1,5.92.17l78.52,88.27a4.56,4.56,0,0,1-.22,6.23l-.32.32a4,4,0,0,1-5.92-.17l-78.52-88.26a4.6,4.6,0,0,1,.22-6.24"/><path id="path4540" class="cls-12" d="M3854,1430.52l.32-.32a4,4,0,0,1,5.89.19l78.52,88.27a4.56,4.56,0,0,1-.2,6.21l-.32.32a4,4,0,0,1-5.92-.17l-78.52-88.26a4.61,4.61,0,0,1,.23-6.24"/><path id="path4544" class="cls-12" d="M3920.09,1556.69l-78.58-88.34a4.62,4.62,0,0,1,.2-6.12l.3-.3a4,4,0,0,1,5.85.15l78.58,88.33a4.55,4.55,0,0,1-.22,6.19l-.3.3a4.1,4.1,0,0,1-5.83-.21"/><path id="path4546" class="cls-12" d="M3918.66,1574,3840,1485.58a4.55,4.55,0,0,1,.17-6l.28-.32a4,4,0,0,1,5.83.17l78.62,88.38a4.51,4.51,0,0,1-.24,6.12l-.29.3a4,4,0,0,1-5.75-.21"/><path id="path4550" class="cls-12" d="M3915.78,1608.51l-78.68-88.46a4.51,4.51,0,0,1,.08-5.92l.29-.29a3.94,3.94,0,0,1,5.75.16l78.68,88.46a4.47,4.47,0,0,1-.21,6l-.3.29a4,4,0,0,1-5.61-.29"/><path id="path4552" class="cls-12" d="M3914.35,1625.79l-78.72-88.5a4.45,4.45,0,0,1,0-5.83l.29-.29a3.9,3.9,0,0,1,5.71.16l78.72,88.5a4.43,4.43,0,0,1-.21,6l-.3.29a3.93,3.93,0,0,1-5.52-.34"/><path id="path4558" class="cls-12" d="M3831.4,1583.1a3.85,3.85,0,0,1,5.61.16l78.81,88.59a4.36,4.36,0,0,1-.21,5.92,3.82,3.82,0,0,1-5.61-.16l-78.81-88.6a4.34,4.34,0,0,1,.21-5.91"/></g></g></g><g id="path4560"><path class="cls-13" d="M3891.45,1548c31.94-109.35,143.38-219.49,248.95-246s165.23,40.5,133.29,149.85-143.39,219.46-248.95,246-165.22-40.54-133.29-149.84"/></g><g id="path4562"><path class="cls-14" d="M3900.62,1545.71c30.41-104,136.52-208.93,237-234.22s157.29,38.58,126.9,142.66-136.5,208.9-237,234.21-157.28-38.58-126.9-142.65"/></g><g id="path4564"><path class="cls-15" d="M3931.89,1537.85c25.16-86.21,113-173,196.28-194s130.27,32,105.11,118.16-113.08,173-196.28,194-130.31-32-105.11-118.15"/></g><g id="path4566"><path class="cls-16" d="M4030.22,1648.38c83.23-20.92,171.12-107.78,196.3-194,11.83-40.53,7.71-73.72-8.68-95.32-19.38-18.61-50.53-25.08-89.67-15.25-83.25,21-171.12,107.79-196.28,194-11.85,40.55-7.7,73.72,8.65,95.31,19.39,18.59,50.53,25.08,89.68,15.22"/></g><g id="path4568"><path class="cls-15" d="M4085.23,1428.42l-12.11,41.52C4053.2,1467.25,4063,1439,4085.23,1428.42Zm-14.67,130.93,11.48-39.29C4098.73,1522.24,4092.73,1547.11,4070.56,1559.35ZM4055,1611.78l2.72-9.25c74.45-22.09,113.49-128.74,38.12-129.54l15.68-53.66c8.29-.43,15.51.9,21.64,3.9,6.35,3.14,35.46-32,35.46-32l-6.4-9.27s-21.47-8.46-38.59-4.16l7.6-5.59c.57-2-4.68-6.83-5.56-7.83s-2.39-1.34-4.32-.86l-11.2,2.83c-3.84,1-7.89,5-9.06,9l-2.68,9.15c-39,16.2-67.74,44.62-78,80q-14.66,50.13,38.68,53.86l-13.5,46.15c-2.85-.22-35.74-5.57-35.74-5.57L3992,1601.79l5.54,5.59s26.65,2.52,34.61,1.28l-2.8,9.59c-.55,1.88-.3,3.37.57,4.25s5,7,6.68,6.55l10.05-9.09a13,13,0,0,0,8.28-8.18"/></g><g id="path4570"><path class="cls-14" d="M4090.31,1434.14l-12.13,41.5C4058.26,1473,4068.05,1444.73,4090.31,1434.14ZM4075.63,1565l11.47-39.29C4103.8,1527.93,4097.79,1552.81,4075.63,1565Zm-15.6,52.45,2.71-9.26c74.44-22.1,113.48-128.75,38.12-129.55l15.68-53.65c17.89-1.75,29.28,4.27,29.28,4.27l23.09-38.06s-23.15-12-40.27-7.73l2.58-8.83c1.17-4-1-6.41-4.85-5.46l-11.21,2.83c-3.83,1-7.88,5-9.06,9l-2.67,9.15c-39,16.2-67.73,44.65-78.05,80q-14.67,50.13,38.68,53.86l-13.51,46.15c-2.84-.22-35.72-5.21-35.72-5.21l-17.94,42.5s29.53,8.59,40.34,6.9l-2.8,9.59c-1,3.63.93,5.86,4.41,5l12.91-3.22a13,13,0,0,0,8.28-8.19"/></g><path class="cls-17" d="M1058.34,1685.22c36.18-208.92,150.49-403.57,158.4-617.42,2-54-24.47-187.7,58.64-161,184.58,59.31,55.76,363.1,113.55,495.05,38.49,87.88,455.71,93.22,465.5,228.66,8.2,113.5-108.34,167.92-110.7,217.27-3.94,82.06,44.29,279.53,13.77,345.82-9.58,20.81-45.84,38.88-62.41,52.91-45.84,38.87-116.11,107-173.24,125.45-99.09,32-232.45,62.26-317.4,123.75-125.69,91-267.14,454.36-378.7,485.72-130.94,36.81-352.45-48.61-391.06-187.38-102.79-369.42,229-650.42,441-905.41,38.4-46.2,91.88-81.91,121-135.05,55.83-101.91-1.64-223.13,50.53-321.94"/><path class="cls-18" d="M3294.2,579.2c-41.32-24.68-76.81-9.5-120.29,5-257.65,85.92-113.62,510.33-156.95,662.2-13.67,47.91-414.53,77.07-436.56,103.22-33.4,39.63-134.05,187.07-145.92,230.93-27.42,101.26,68,502.65,132.32,590.45,77.16,105.42,248.95,158.81,375.49,168.48,54,4.14,116.34-7.69,166.81,17.59,163.2,81.76,600.94,334.21,769.16,297.65,349.05-75.84-139.52-776-231.73-893.58-76.76-97.87-174-169.94-239.58-279.55-89.13-148.94-127.22-571.12-165.43-770.92"/><path class="cls-19" d="M4181.74,1932.71c-12.82-20.12-27.32-89.35-49.57-95.08-127.51-32.89-190.48,91.1-207.61,111.48-75.47,89.7-301.17,462.81-289.08,584.7,6.43,64.68,68.58,117.77,111.07,161.16,75.2,76.83,74.37,119.71,173,74,27.75-12.83,64.9-18.18,86.27-43.09,142.19-165.83,179.43-319.16,179.48-540.21"/><path class="cls-20" d="M4146.51,1922.81c-15.82-38.92-60.56-73.1-89.44-101.53-53-52.2-107.2-114.7-146-178.42-99.89-164.11-169.75-339.71-254.9-511.43-14.64-29.53-36-50.78-53.7-77.89-26.78-41.1-44.79-87.81-69.75-130.23-78.15-132.86-114.58-287-162.76-432.06-11.71-35.34-30.11-153.71-93.72-116.51-41.91,24.5-53.54,84.8-70.05,126.32-50.91,128.05-62.47,259.75-19.31,391,7.83,23.83,25.18,45.1,30.19,69.84,6.09,30.23,7.21,62.75,15.68,92.42,1.5,5.27,14.19,49,8.8,52.06-.83.46-186.16-34.77-207.88-36.52-137.37-11.08-248.09,74.85-374.76,111.7-49.65,14.44-153.16,52.41-174.82,105.56-11.72,28.72,21.55,160.51,51.1,171.59,41.85,15.76,103.56,2.2,108.36,12.93,12.73,28.32,17.48,86.26,21.07,117.08.8,6.86,14.13-.65,14.88,11.35,2.09,33.83-10.27,66.51-5.44,102,3.37,25,4.88,50.86,9.22,75.57,1,5.68,18.74,13,18.36,17-.77,8.37-12.62,17.46-15,26.57-14.9,58.15-15.52,141,7.22,198.22,16.32,41-15-35.34,3.53-7.53,53.09,79.47,151.93,147.38,246.22,186.65,66.59,27.76,112.78,42.95,182.4,57.74,88.9,18.89,365.33-6.61,416.21,20.26,51.34,27.11,156.11,208.62,184.29,262.55,15.14,29,42.94,101.47,84.6,97.7,46.57-4.22,137.21-94.85,163.46-129.09,113.16-147.57,157.63-214.41,195.38-392.16,10.7-50.45,39.65-168-11.39-209.08"/><path class="cls-21" d="M3392.24,560.82c1.42,40.67,7.27,95.37-14.88,104.68s-76.8-5.08-92.78-23.83c-8.1-9.49-8.66-21.06-8.8-33.08,0-2-1.23-17.13-2.3-11.22-20.75,111.91,122.3,62.21,143.72,151.15,16.81,69.77,31.26,140.1,64.72,204.78,19.17,37.09,57.21,70.39,83.24,103,23.51,29.45,40.67,72.89,57.1,107,21.58,44.7,27.64,99,44.56,145.86,52.44,145,102,294.14,118.57,448.44,7,64.58,2.71,205.29-33.75,260.24-18,27.08-52,50-81,61.56-7.48,3-48.1,6.08-45.2,17.78,9.73,39.45,123.67,3.71,146.38-8.23,5-2.61,38.36-20.79,40.53-6.16.88,5.94-10.86,19.23-13.51,24.5-30.67,60.49-64.18,95.15-117.34,135.58-8.15,6.21-68.15,20.89-62.36,28.64,19.65,26.33,78.63-9.49,97.53-18.56,62.17-29.8,122.6-66.75,178.44-106.8,22.81-16.35,55.06-45.83,86.91-37.57,24.27,6.27,50.32,53,65.95,70.6a768.3,768.3,0,0,0,82,78.72c15.39-40.29,28.09-85.69,40.13-142.33,10.7-50.45,39.65-168-11.39-209.08l-12.12,16.38c-15.82-38.92-60.56-73.1-89.44-101.53-53-52.2-107.2-114.7-146-178.42-99.89-164.11-169.75-339.71-254.9-511.43-14.64-29.53-36-50.78-53.7-77.89-26.78-41.1-44.79-87.81-69.75-130.23C3467,811.51,3430.77,684.67,3392.24,560.82Z"/><path class="cls-22" d="M2658.59,1536.68a41.38,41.38,0,0,0,4.64,2.15c20.8,8.18,39.68,18.18,61.36,24.69,42.85,12.88,87.37,18.64,130.11,32.6,48.2,15.73,98.33,39.94,150.32,41,26.83.54,52.67,6.27,79.78,5,11.93-.56,23.64-3.9,35.6-4.78,46.62-3.39,93.32-4.6,139.94-7.4,18.93-1.13,38.18-2.82,57.08-3.17,11.07-.22,25.39.19,34.61-7.32,6.84-5.56,7.83-14.47,10.43-22.35,10.05-30.42-3.81-64-8.13-94.13-1.47-10.3-4.42-20.52-6.11-30.79-.37-2.26-2.36-9,.59-10,13-4.54,21.1,23.59,24.53,31.09,6.46,14.15,9.49,29.64,16.09,43.65,9.33,19.85,21.71,44.67,19.43,67.64-2.44,24.64-43.13,34.78-60.83,40.86-40.83,14.06-81.84,27.94-123.34,40-20.4,5.95-43,3-58,21.06-2.9,3.5-1.1,9.79-1,13.8.43,11.46,1.05,23.69.08,35.1-2.09,25.14-2.6,50.15-5.89,75.14-2.31,17.43.35,34.13-10.06,49.41-8.36,12.34-36.94,21.67-50.93,22.51-9.55.56-24.8-2.8-33.33,3.14-.13.09,4.75,2.91,5.23,3.18q5.74,2.94,11.61,5.62c8.58,3.87,33.11,14.31,36.7,23.45,10.4,26.6,2.92,60.65.19,87.87-.94,9.33,1.31,25.82-5,33.4-3.41,4.09-18.9,5.86-24,7-24.12,5.29-46.27,10.35-71.17,7.82-79.09-8-159.06-7.8-238.15-16q-9-.93-18.09-1.83c-20.19-15.52-53.62-.48-68.42-35.37,4.51-1,10.4-.69,13.51-.61,26,.7,51.88,3.14,77.94,3.14,23.67,0,48.09,3.34,71.82,4.82,46.86,2.93,95.36.13,141.79-5.81,25-3.2,56.41,0,70.56-26.25a73.52,73.52,0,0,0,7.24-22.65c1.34-8.31,5.2-19.9,2.22-28.32-3.13-8.93-17.72-13.44-25.46-15.68a367.75,367.75,0,0,0-68.1-13.18c-43.13-4.08-85.95-15.73-127.69-26.84-34.48-9.17-69.7-17.67-103.16-30-19.62-7.24-52.41-9.68-71.87-22.86q1.56-7.83,3.45-15.23c1.64-6.37,7.91-12.74,11.83-18.85l2.06.32c10.08,1.64,19,6.41,28.9,8.42,26,5.25,52.25,10.44,77.93,16.65,67.35,16.33,141.34,35.72,211.12,27,22.87-2.87,54.94-2.79,72.66-21,7.31-7.53,8-19.42,9.46-29.07,3.06-19.64,6.11-39.38,7.93-59.12a118.81,118.81,0,0,0-.45-22.16c-.27-2.69-5.28-6.75-7-8.47-13.89-13.69-28.58-16.89-47-22-19.38-5.46-39.11-11.27-58.92-14.82-42.71-7.64-86.09-16.3-128.28-26.49-41.75-10.12-83.35-25.66-125.82-32.55-19.41-3.14-39.14-16.19-58.47-20-1-.22-2.14-.41-3.3-.65-1.9-9.49-13.88-3.09-14.66-9.6C2663.07,1575,2661.25,1556,2658.59,1536.68Z"/><path class="cls-22" d="M3153.27,1743.5c-10.48,10.41-8.53,37.49-10.67,50.59-9.36,56.86-8.85,118.47-2,175.63,2.2,18.37,4.13,38.4,10,56,1.83,5.46,5.23,19.42,14.83,16.6,5.44-1.62,5.47-14.87,6.11-19.1,3.19-20.36,5.82-39.1,5.82-59.86,0-51.4-1.82-102.74.67-154.09,1.34-28-.72-64.33,11.55-90.28,3.49-7.4,38.18-16.3,38.39-8.66.43,14-11.52,29.34-14.42,43.11-6.08,28.86-5.12,55.46-3.7,84.58.19,3.55-.64,38.54,9,37.9,11-.78,6.75-44.4,7.1-52.26,1.15-25.28,5.07-51.61,8.53-76.67,1.34-9.55,1.5-25.26,6.7-33.65,3.32-5.38,13.51-5.27,18.31-8,8.82-5.06,15-16.73,26.94-15.71,6.49.54,9.95,16.3,11.5,20.76,8.45,24,17.78,47.74,23.89,72.65,22.76,92.52,46.16,189.93,110,263.78,20.07,23.24,49.46,36.28,73.69,54.63,2.95,2.26,17.59,17.26,22.28,12.07,11.34-12.56-14.13-58.9-18.77-71.19-28-74.2-56.94-132.72-72.59-211.5-6.2-31.2-10.51-63.36-14.53-95-1.72-13.44-6.49-35.39-2.18-48.73.62-1.91,7.91,11.27,8.45,12.18,5.47,10,9.11,21.44,15.15,31.12.69,1.13,8.52,10.06,10.64,6.51,5.36-9-7.69-30.77-9.49-40.26-8.18-42.87-34.21-77.16-43-120.55-2.74-13.55-5.34-27.27-8.85-40.69-.37-1.5-1.61-10.33-3.91-10.89-3-.7-4,8-4.21,9.36-1.72,11.67-.32,23.48-2.33,35.12-5.93,34.56-10.33,41.18-33.3,66-4.32,4.65-6.81,11.38-12.6,14.58-34.37,18.9-82.49,1.48-119.11,6.21-19.76,2.56-41.69,3.93-50.3,25.15"/><path class="cls-22" d="M2595.78,1243.23c17.64-.83,35.33,2.47,53.08,2.5,41.61,0,85.28-4.73,117.61,26.65,19.12,18.56,31.31,53.77,36.33,79.61,2,10.17,3.37,29,18.76,23.78,5.79-2,3.73-17.83,3.43-22.11-2-26.79-6-53.28-6.86-80.09-.11-2.93-2-26.09,3-27.52,3-.88,11.18,26.17,12.06,29.35,4.75,17,10.27,63.66,18.85,76.67,2.41,3.69,10.1,3.53,13.75,4.12s16.81,4.65,20.13,1.72-1.77-23-2.41-26.92a676,676,0,0,1-8.07-79.18c-.29-6.24-.35-12.94-1-19.15-.06-.51-1.18-11.57-.78-11.48,6.41,1.26,13.19,25,14.93,29.88,10.83,30.71,15.6,63.68,26.94,94,12,32.08,69.39,34.26,96.84,39,8.76,1.51,17.13,8,26,7.86,5-.11-1.13-27.33-1.53-29.53-6.25-34.48,4.88-46.24,14-15.55,3.83,12.91,5.6,31.47,13.54,42.82,12,17.1,55.41,16.3,72.94,18,19.17,1.86,37.54,7.83,56.44,11,28.95,4.81,59.59,3.17,88.47,8.26,11,1.91,24.42,5.89,35.6,2.88,29.94-8.05,8.09-46.86.53-63.93-17.85-40.16-38.28-80.58-51.15-122.75-6.27-20.58-9-41.53-19.92-60.06-9-15.36-59.24,8-63.53,3-7.16-8.31,5.2-19.45,11.07-22.86,12.89-7.48,47.37-23.78,63.19-16.22,3.38,1.61,3.16,10.62,4,13.61,3.78,13.93,7.11,27.94,11.18,41.79,13.65,46.29,31.82,91.87,51.74,135.87,13.11,29,27.7,57.67,43.33,85.34,3.29,5.81,31.55,41.61,21.33,46-46.08,19.9-135.33-8.82-179.53-24.56-33.65-12-69.09-15.27-104-21.35-57.18-9.92-113-22.75-170.9-27.06-34.61-2.58-74.45-7.1-108.47,2.16-13.11,3.57-7,26.46-19.46,34.85-31.77,21.44-81.21,22.54-117.61,29.75-15.07,3-26.44,10.7-41.75,3.22-9.08-4.43,32.55-11.18,34.91-12.07,20.56-7.83,39.25-20,58.28-31.09,8.18-4.76,18.21-8.23,20.89-18.4,8.39-31.84-7-118.58-38.8-136.46-20.83-11.76-49-8.21-71.71-10.38Z"/><path class="cls-23" d="M2610.66,1332.63c1.39,10.11,4.69,20.17,6.4,30.28,4.91,28.35,10.7,64.25,39.17,78.78,7.08,3.6,14.61,2.82,22.33,2.82,16.87,0,33.43-3.33,49.73-7.39,7.54-1.89,15.93-2.16,23.62-3.29,1.32-.18,6.79-.21,7.54-1.93,1.69-4,1-8.31,2.57-12.37,1.42-3.66,2.87-6.89,2.33-10.79-.16-1.18-4-2.18-4.85-2-6.06,1.75-11.74,2.85-18,4.19-9.2,2-18.77,1.86-28,4.06-15.26,3.58-32.71,7.88-48.5,6.57-7.7-.65-13.51-6.49-19.38-10.76-8-5.84-16.68-12.7-21.08-21.92-3-6.27-2.09-12.67-3.48-19.2-2.33-11.25-6.09-21.39-6.52-33"/><path class="cls-23" d="M3301.49,1561.07c1,19.56-1.12,49.17,12,65.52,6.35,7.88,43.83,14.2,45.28,5.22,2.63-16.49-23.08-13.77-28.71-24.1-10.22-18.77-10.56-45.53-13.54-66.51"/><path class="cls-24" d="M3981.82,2669.44c31.66-34.37,39.57-99.27,53.27-142.16,50.48-158.07,84.1-316.1,98.44-481.56,4.86-55.78,3.25-111.53,2.55-167.1-.08-5.67-3.62-31.46.13-35.79,26.14-30.13,202,11.91,235.25,28.4,72.2,35.85,69.63,83.16,83,158.92,2,11.67,1.2,36.93,10.26,46,64.48,64.41,261.47,124.47,288.6,194.26,13.78,35.4-2.36,91.66,1.58,129.23,10.27,98.36,40.11,205.53,31.74,304.72-2.94,35-103,15.47-121.52,14.2-102.7-7-212.57-5.3-315.49-.43-33.19,1.56-65.14,12.19-98,13.58"/><path class="cls-25" d="M4135.17,1866.87l4.61,5.08c22,56.24,4.29,134.58,4.26,193.3-.05,105.42,7.91,209.64,2.09,315.34-2.84,51.18-25.38,110.32-14.82,160.78,13.7,65.33,184.1,185,235.17,108.82,16.83-25.15,77.88-410.77,83.37-462.89.51-4.79.67,9.62,1.56,14.36,1.26,6.83,4.26,13.55,6,20.36,5,19.77,7.43,40.8,10.43,61,8.56,57.5-13.75,143.78,21.34,195.63,11.64,17.22,191.66,39.7,220.83,47.47,10.37,2.77,39.22,14.5,67.56,24.32,7.8,51.9,13.29,103.94,9.08,153.94-2.94,35-103,15.47-121.52,14.2-102.7-7-212.57-5.3-315.49-.43-33.19,1.56-65.14,12.19-98,13.58l-269.81-62.26c31.66-34.37,39.57-99.27,53.27-142.16,50.48-158.07,84.1-316.1,98.44-481.56,4.86-55.78,3.25-111.53,2.55-167.1C4136.05,1876.63,4135.57,1872.09,4135.17,1866.87Z"/><g id="path44761"><path class="cls-7" d="M2650.44,1040.1c123.85-7.4,269.32-103.65,324.87-214.94s.18-195.61-123.71-188.18-269.28,103.63-324.87,214.95-.14,195.57,123.71,188.17"/></g><g id="path44781"><path class="cls-8" d="M2534.68,864c55.59-111.32,201-207.55,324.87-214.95,58.28-3.49,101.37,13.32,124.9,43.67,18.57,33.68,17,80-9.14,132.42-55.55,111.29-201,207.54-324.87,214.94-58.25,3.46-101.38-13.32-124.9-43.67-18.58-33.68-17-80.07,9.14-132.41"/></g><g id="path44801"><path class="cls-7" d="M2847.73,858.28l-59.64,3.57C2785.12,891,2826.22,886.39,2847.73,858.28ZM2667.42,836l56.43-3.34C2726.48,808.24,2691.08,808.56,2667.42,836Zm-75.5,4.91,13.31-.78c54.2-98.48,210.11-118.85,186.31-11.54L2868.6,824c3.3-11.67,4-22.34,1.9-32-2.5-12.12,8.43-28.78,26.09-38.9,17-9.73,30.83-15.24,37.68-7,1.52,1.82,5.9,9.22,6.34,11.86,2.52,17.31-.89,39.67-12.33,62.53l10-8.91c2.87-.16,7.59,8.91,8.61,10.46s1.07,3.85-.23,6.39l-7.47,15c-2.58,5.12-9.28,9.56-15,9.92l-13.15.79c-34.59,50-82.22,81.5-133.05,84.56Q2706,943,2718.57,866l-66.29,4a40.25,40.25,0,0,0,.3,13.52c2.12,12.2-9.38,28.81-26.86,38.8-22.55,13-46.27,8.77-46.69-8-.34-12.35,3.72-25.17,9.61-40l-13.78.82c-2.7.16-4.61-.69-5.51-2.21s-7.75-9.4-6.6-11.68l15.5-11.28c2.32-4.69,8.46-8.75,13.67-9"/></g><g id="path44821"><path class="cls-9" d="M2841.77,849.22l-59.64,3.57C2779.16,882,2820.26,877.33,2841.77,849.22ZM2661.46,827l56.43-3.35C2720.52,799.17,2685.12,799.5,2661.46,827Zm-75.5,4.91,13.31-.79c54.2-98.47,210.11-118.85,186.31-11.54l77.06-4.58q5-17.51,1.9-32.05c-2.5-12.11,8.4-28.81,26.07-38.93,20.75-11.83,41.82-9.78,44,4.85,2.52,17.31-.89,39.67-12.33,62.53l12.69-.75c5.73-.32,8.29,3.57,5.71,8.69l-7.47,15c-2.58,5.12-9.28,9.56-15,9.92l-13.15.79c-34.59,50-82.22,81.5-133.05,84.56q-72,4.29-59.45-72.67l-66.29,4a40.24,40.24,0,0,0,.3,13.52c2.12,12.2-9.41,28.78-26.86,38.8-22.55,13-45,9.53-45.4-7.25q-.48-18.47,8.32-40.69l-13.78.82c-5.25.33-7.58-3.22-5.22-7.93l8.61-17.24c2.32-4.68,8.46-8.74,13.67-9"/></g><g id="path44841"><path class="cls-10" d="M2620.91,1055c157.14-9.37,341.59-131.41,412.05-272.63,33.14-66.38,35.14-125.16,11.67-167.85-1.43-2.58-52.21-80.07-53.82-82.52-28.27-43.42-35.92,7-114.74,11.73C2719,553.14,2534.51,675.2,2464,816.38c-35,70.15-84.53,56.85-56.69,100,1.56,2.38,52.5,79.7,54.24,82,29.61,39.28,84.68,61.07,159.34,56.61"/></g><g id="g44861"><g id="g44881"><g class="cls-26"><path id="path44941" class="cls-12" d="M3076.53,663.91a5.82,5.82,0,0,0,1.65-8l-92.77-141.1a5.78,5.78,0,1,0-9.64,6.38l92.77,141.1a5.74,5.74,0,0,0,8,1.65"/><path id="path44961" class="cls-12" d="M2969.29,546.32,3062,687.38a5.82,5.82,0,0,0,7.62,1.9l.45-.3a5.85,5.85,0,0,0,1.68-8.05l-92.73-141.07a5.82,5.82,0,0,0-8.06-1.65l-.43.33a5.87,5.87,0,0,0-1.27,7.78"/><path id="path44981" class="cls-12" d="M2962.81,571.48l92.69,141a5.89,5.89,0,0,0,7.76,1.85l.48-.26a5.94,5.94,0,0,0,1.66-8.15l-92.68-141a5.91,5.91,0,0,0-8.13-1.67l-.42.34a5.94,5.94,0,0,0-1.36,7.89"/><path id="path45001" class="cls-12" d="M2956.33,596.64,3049,737.55a5.94,5.94,0,0,0,7.86,1.85l.52-.29a6,6,0,0,0,1.64-8.19L2966.35,590a5.86,5.86,0,0,0-8.12-1.67l-.49.32a6,6,0,0,0-1.41,8"/><path id="path45381" class="cls-12" d="M2739.66,1061.24l.53-.35a6.12,6.12,0,0,0,1.73-8.46l-92.41-140.57a6,6,0,0,0-8.44-1.74l-.53.35a6.1,6.1,0,0,0-1.73,8.46l92.42,140.58a6.08,6.08,0,0,0,8.43,1.73"/><path id="path45401" class="cls-12" d="M2716.81,1071.86l.53-.35a6.12,6.12,0,0,0,1.7-8.44L2626.62,922.5a6,6,0,0,0-8.4-1.76l-.52.35a6.12,6.12,0,0,0-1.74,8.46l92.42,140.57a6.1,6.1,0,0,0,8.43,1.74"/><path id="path45441" class="cls-12" d="M2569.48,936.51,2662,1077.2a6.12,6.12,0,0,0,8.28,1.73l.49-.32a6.07,6.07,0,0,0,1.74-8.36L2580,929.56a6,6,0,0,0-8.37-1.72l-.49.32a6.2,6.2,0,0,0-1.64,8.35"/><path id="path45461" class="cls-12" d="M2545.83,932.85l92.54,140.77a6,6,0,0,0,8.18,1.74l.51-.28a6.06,6.06,0,0,0,1.71-8.34L2556.23,926a6,6,0,0,0-8.29-1.68l-.49.33a6.08,6.08,0,0,0-1.62,8.22"/><path id="path45501" class="cls-12" d="M2498.58,925.58l92.61,140.87a6,6,0,0,0,8,1.84l.49-.33a6,6,0,0,0,1.68-8.21l-92.61-140.88a5.92,5.92,0,0,0-8.19-1.68l-.49.32a6,6,0,0,0-1.45,8.07"/><path id="path45521" class="cls-12" d="M2474.94,921.92l92.66,140.95a5.88,5.88,0,0,0,7.82,1.87l.49-.32a5.92,5.92,0,0,0,1.67-8.15l-92.66-140.95a5.88,5.88,0,0,0-8.13-1.68l-.49.33a6,6,0,0,0-1.36,7.95"/><path id="path45581" class="cls-12" d="M2504.79,1053.8a5.85,5.85,0,0,0,1.64-8l-92.76-141.1a5.78,5.78,0,1,0-9.64,6.38l92.76,141.1a5.78,5.78,0,0,0,8,1.65"/></g></g></g><g id="path45601"><path class="cls-13" d="M2571.61,980c157.14-9.37,341.59-131.41,412-272.63s.25-248-156.89-238.64-341.56,131.44-412,272.62-.19,248,156.88,238.65"/></g><g id="path45621"><path class="cls-14" d="M2577.77,967.78c149.53-8.94,325.16-125.15,392.24-259.52s.19-236.1-149.37-227.2S2495.52,606.19,2428.4,740.58s-.19,236.11,149.37,227.2"/></g><g id="path45641"><path class="cls-15" d="M2598.63,926c123.87-7.37,269.31-103.59,324.87-215s.17-195.54-123.71-188.17-269.32,103.65-324.87,214.95-.18,195.6,123.71,188.17"/></g><g id="path45661"><path class="cls-16" d="M2482.9,749.9c55.52-111.33,201-207.58,324.84-215,58.25-3.46,101.38,13.32,124.92,43.71,18.55,33.64,17,80-9.16,132.37-55.56,111.36-201,207.58-324.87,215-58.28,3.49-101.38-13.32-124.94-43.65-18.51-33.67-16.94-80,9.21-132.4"/></g><g id="path45681"><path class="cls-15" d="M2796,744.17l-59.66,3.53C2733.31,776.88,2774.37,772.27,2796,744.17Zm-180.37-22.26,56.47-3.37C2674.63,694.11,2639.3,694.45,2615.58,721.91Zm-75.44,4.92,13.29-.83c54.2-98.47,210.06-118.82,186.26-11.51l77.11-4.61c3.32-11.63,3.91-22.32,1.92-32-2.13-10,54.59-39.84,54.59-39.84l10.31,12.15s4.26,33.27-7.16,56.17l10-9c2.86-.16,7.62,8.89,8.67,10.48s1,3.83-.27,6.41l-7.5,15c-2.57,5.12-9.28,9.55-15,9.91l-13.16.79c-34.59,50-82.19,81.54-133,84.54q-72,4.32-59.44-72.67l-66.33,4c-.65,4.11-4.34,52.58-4.34,52.58l-63.35,11.07-5.67-9.69s5.42-38.69,9.71-49.59L2523,761c-2.7.17-4.61-.68-5.5-2.21s-7.69-9.39-6.58-11.64l15.5-11.28c2.36-4.71,8.46-8.75,13.71-9.07"/></g><g id="path45701"><path class="cls-14" d="M2790,735.07l-59.63,3.56C2727.35,767.81,2768.41,763.2,2790,735.07Zm-180.34-22.23,56.47-3.37C2668.67,685.05,2633.34,685.38,2609.62,712.84Zm-75.47,4.88,13.32-.78c54.2-98.48,210.06-118.82,186.26-11.51l77.11-4.61c8.25-24.85,3.93-43,3.93-43l58.65-20.28s8.5,36.85-2.93,59.75l12.7-.76c5.7-.36,8.26,3.53,5.71,8.69l-7.5,15c-2.57,5.12-9.28,9.55-15,9.91l-13.16.79c-34.59,50.05-82.21,81.5-133,84.54q-72,4.34-59.45-72.67l-66.33,4c-.64,4.11-4.8,52.45-4.8,52.45l-62.9,11.5s-1.77-44.77,4.06-59.57l-13.78.82c-5.2.3-7.54-3.25-5.19-7.9l8.58-17.28c2.37-4.7,8.47-8.74,13.71-9.07"/></g><g id="path44762"><path class="cls-7" d="M1457.19,919.81c-70.4-4.21-153.08-58.91-184.66-122.17s-.1-111.18,70.32-107,153.05,58.9,184.65,122.18.08,111.16-70.31,106.95"/></g><g id="path44782"><path class="cls-8" d="M1523,819.73c-31.59-63.27-114.26-118-184.65-122.17-33.13-2-57.62,7.57-71,24.82-10.56,19.14-9.67,45.49,5.19,75.26,31.58,63.26,114.26,118,184.66,122.17,33.1,2,57.62-7.57,71-24.82,10.55-19.15,9.64-45.51-5.2-75.26"/></g><g id="path44802"><path class="cls-7" d="M1345.05,816.47l33.89,2C1380.63,835.08,1357.27,832.45,1345.05,816.47Zm102.48-12.65-32.07-1.9C1414,788,1434.08,788.21,1447.53,803.82Zm42.92,2.79-7.57-.44c-30.81-56-119.42-67.55-105.89-6.56L1333.18,797q-2.81-9.94-1.08-18.21c1.43-6.89-4.79-16.36-14.83-22.11-9.66-5.53-17.52-8.66-21.41-4-.87,1-3.36,5.24-3.6,6.74-1.43,9.84.5,22.55,7,35.54l-5.7-5.07c-1.63-.09-4.32,5.07-4.9,6a3.56,3.56,0,0,0,.14,3.63l4.24,8.54a11.38,11.38,0,0,0,8.52,5.64l7.48.45c19.66,28.44,46.73,46.32,75.62,48.06q40.92,2.45,33.79-41.3l37.68,2.25a23,23,0,0,1-.17,7.68c-1.21,6.93,5.33,16.38,15.26,22.06,12.82,7.37,26.3,5,26.54-4.54.19-7-2.11-14.31-5.46-22.71l7.83.46a3.18,3.18,0,0,0,3.13-1.25c.5-.81,4.41-5.35,3.75-6.64l-8.8-6.42a10.28,10.28,0,0,0-7.77-5.14"/></g><g id="path44822"><path class="cls-9" d="M1348.44,811.32l33.89,2C1384,829.93,1360.66,827.29,1348.44,811.32Zm102.48-12.65-32.08-1.9C1417.35,782.87,1437.47,783.06,1450.92,798.67Zm42.91,2.79-7.56-.45c-30.81-56-119.42-67.55-105.9-6.55l-43.8-2.61c-1.87-6.63-2.25-12.7-1.08-18.22,1.43-6.88-4.77-16.37-14.81-22.12-11.8-6.73-23.78-5.56-25,2.75-1.43,9.84.51,22.55,7,35.55l-7.21-.43c-3.26-.18-4.71,2-3.25,4.94l4.25,8.54a11.31,11.31,0,0,0,8.52,5.63l7.47.45c19.67,28.45,46.73,46.33,75.63,48.07q40.92,2.43,33.79-41.31l37.68,2.25a23.31,23.31,0,0,1-.17,7.69c-1.21,6.93,5.34,16.35,15.26,22.05,12.82,7.37,25.56,5.42,25.81-4.12.18-7-1.38-14.72-4.73-23.13l7.83.47c3,.18,4.31-1.83,3-4.51l-4.9-9.8a10.26,10.26,0,0,0-7.77-5.14"/></g><g id="path44842"><path class="cls-10" d="M1474,928.3c-89.32-5.33-194.16-74.69-234.21-155-18.83-37.73-20-71.14-6.63-95.41.81-1.46,29.67-45.5,30.59-46.9,16.07-24.68,20.42,4,65.22,6.67,89.28,5.33,194.14,74.71,234.2,154.95,19.89,39.88,48,32.32,32.23,56.85-.89,1.35-29.85,45.3-30.84,46.62-16.82,22.33-48.12,34.71-90.56,32.18"/></g><g id="g44862"><g id="g44882"><g class="cls-27"><path id="path44942" class="cls-12" d="M1215,706a3.31,3.31,0,0,1-.94-4.56l52.73-80.2a3.28,3.28,0,1,1,5.48,3.62l-52.73,80.2a3.26,3.26,0,0,1-4.54.94"/><path id="path44962" class="cls-12" d="M1276,639.15l-52.71,80.18a3.3,3.3,0,0,1-4.33,1.08l-.26-.17a3.33,3.33,0,0,1-1-4.58l52.71-80.18a3.31,3.31,0,0,1,4.58-.94l.24.19a3.33,3.33,0,0,1,.72,4.42"/><path id="path44982" class="cls-12" d="M1279.63,653.45,1227,733.59a3.34,3.34,0,0,1-4.41,1.06l-.27-.15a3.39,3.39,0,0,1-1-4.64L1274,649.73a3.33,3.33,0,0,1,4.61-1l.25.19a3.36,3.36,0,0,1,.76,4.48"/><path id="path45002" class="cls-12" d="M1283.32,667.75l-52.66,80.1a3.37,3.37,0,0,1-4.46,1l-.3-.17a3.37,3.37,0,0,1-.93-4.65L1277.62,664a3.34,3.34,0,0,1,4.62-1l.28.19a3.39,3.39,0,0,1,.8,4.53"/><path id="path45382" class="cls-12" d="M1406.47,931.83l-.3-.2a3.48,3.48,0,0,1-1-4.81l52.52-79.9a3.45,3.45,0,0,1,4.8-1l.3.2a3.47,3.47,0,0,1,1,4.81l-52.52,79.9a3.46,3.46,0,0,1-4.8,1"/><path id="path45402" class="cls-12" d="M1419.46,937.86l-.3-.19a3.47,3.47,0,0,1-1-4.8l52.52-79.9a3.44,3.44,0,0,1,4.78-1l.3.2a3.48,3.48,0,0,1,1,4.81l-52.53,79.9a3.46,3.46,0,0,1-4.79,1"/><path id="path45442" class="cls-12" d="M1503.2,860.93l-52.57,80a3.47,3.47,0,0,1-4.7,1l-.28-.18a3.45,3.45,0,0,1-1-4.75l52.57-80a3.43,3.43,0,0,1,4.76-1l.28.19a3.53,3.53,0,0,1,.93,4.74"/><path id="path45462" class="cls-12" d="M1516.64,858.85l-52.6,80a3.43,3.43,0,0,1-4.64,1l-.3-.17a3.43,3.43,0,0,1-1-4.74l52.59-80a3.4,3.4,0,0,1,4.71-1l.28.19a3.44,3.44,0,0,1,.92,4.67"/><path id="path45502" class="cls-12" d="M1543.5,854.72l-52.64,80.07a3.4,3.4,0,0,1-4.52,1l-.28-.18a3.4,3.4,0,0,1-1-4.67l52.64-80.07a3.37,3.37,0,0,1,4.66-1l.27.19a3.42,3.42,0,0,1,.83,4.58"/><path id="path45522" class="cls-12" d="M1556.94,852.64l-52.67,80.11a3.35,3.35,0,0,1-4.45,1.07l-.28-.19a3.36,3.36,0,0,1-.94-4.63l52.67-80.11a3.32,3.32,0,0,1,4.61-.95l.28.18a3.4,3.4,0,0,1,.78,4.52"/><path id="path45582" class="cls-12" d="M1540,927.6A3.32,3.32,0,0,1,1539,923l52.72-80.2a3.28,3.28,0,1,1,5.48,3.62l-52.72,80.2a3.29,3.29,0,0,1-4.55.94"/></g></g></g><g id="path45602"><path class="cls-13" d="M1502,885.67c-89.32-5.32-194.15-74.69-234.2-154.95s-.15-141,89.17-135.65,194.14,74.72,234.2,155,.11,141-89.17,135.64"/></g><g id="path45622"><path class="cls-14" d="M1498.49,878.71c-85-5.09-184.82-71.14-222.94-147.51s-.11-134.2,84.89-129.14,184.8,71.12,223,147.51.11,134.2-84.9,129.14"/></g><g id="path45642"><path class="cls-15" d="M1486.63,854.93c-70.41-4.19-153.07-58.88-184.65-122.17s-.1-111.14,70.31-107S1525.37,684.72,1557,748s.1,111.18-70.32,107"/></g><g id="path45662"><path class="cls-16" d="M1552.41,754.87c-31.56-63.28-114.24-118-184.63-122.2-33.11-2-57.63,7.57-71,24.85-10.54,19.12-9.63,45.48,5.21,75.24,31.58,63.29,114.24,118,184.65,122.17,33.13,2,57.62-7.57,71-24.81,10.53-19.14,9.63-45.48-5.23-75.25"/></g><g id="path45682"><path class="cls-15" d="M1374.48,751.61l33.91,2C1410.08,770.2,1386.74,767.58,1374.48,751.61ZM1477,739,1444.9,737C1443.43,723.16,1463.52,723.35,1477,739Zm42.88,2.79-7.56-.47c-30.8-56-119.39-67.53-105.87-6.54l-43.82-2.62a37.87,37.87,0,0,1-1.09-18.19c1.2-5.72-31-22.65-31-22.65l-5.86,6.9s-2.42,18.92,4.07,31.93L1323,725c-1.63-.09-4.33,5.05-4.92,6a3.63,3.63,0,0,0,.15,3.64l4.26,8.52a11.35,11.35,0,0,0,8.52,5.64l7.47.45c19.67,28.44,46.72,46.34,75.61,48q41,2.46,33.78-41.31l37.71,2.27c.36,2.34,2.46,29.89,2.46,29.89l36,6.29,3.22-5.51s-3.08-22-5.52-28.18l7.83.46a3.17,3.17,0,0,0,3.13-1.25c.48-.82,4.37-5.34,3.74-6.62l-8.81-6.41a10.32,10.32,0,0,0-7.79-5.16"/></g><g id="path45702"><path class="cls-14" d="M1377.88,746.43l33.9,2C1413.47,765.05,1390.13,762.43,1377.88,746.43Zm102.51-12.63-32.1-1.91C1446.82,718,1466.9,718.2,1480.39,733.8Zm42.89,2.78-7.57-.45c-30.8-56-119.4-67.54-105.87-6.54L1366,727c-4.7-14.12-2.24-24.44-2.24-24.44L1330.44,691s-4.83,20.94,1.67,34l-7.22-.43c-3.24-.2-4.69,2-3.24,4.94l4.26,8.52a11.35,11.35,0,0,0,8.52,5.64l7.47.44c19.66,28.45,46.73,46.33,75.61,48q41,2.46,33.78-41.3l37.7,2.27c.37,2.33,2.73,29.81,2.73,29.81l35.76,6.53s1-25.44-2.31-33.86l7.83.47c3,.17,4.28-1.85,3-4.49l-4.88-9.82a10.31,10.31,0,0,0-7.79-5.15"/></g><g id="path44763"><path class="cls-7" d="M2172.24,179.05c69.91,101.5,226,175.72,348.56,165.75s165.34-100.38,95.39-201.89S2390.25-32.79,2267.63-22.84s-165.29,100.4-95.39,201.89"/></g><g id="path44783"><path class="cls-8" d="M2261.51-9.87c122.61-10,278.64,64.25,348.55,165.75,32.9,47.76,40.85,93,27.3,128.64-18.91,33.1-58.88,55.59-116.56,60.28-122.58,10-278.65-64.25-348.56-165.75-32.86-47.74-40.85-93-27.29-128.63,18.9-33.11,58.91-55.58,116.56-60.29"/></g><g id="path44803"><path class="cls-7" d="M2427.24,253.35l-33.66-48.87C2367.4,217,2392.44,249.51,2427.24,253.35ZM2353.37,88.62l31.83,46.26C2407.2,124.54,2388.74,94.61,2353.37,88.62Zm-42.95-61.68,7.51,10.92c111-4.53,208.38,117.56,105.49,152.47l43.48,63.17q17.34-4.78,28-14.86c9-8.35,28.64-7.62,46.27,2.2,17,9.45,28.72,18.37,25.31,28.42-.75,2.22-4.75,9.75-6.75,11.48-13.33,11-34,19.63-59.17,21.65l12.68,3.95c1.61,2.35-3.63,11-4.41,12.69s-2.7,2.89-5.52,3.09l-16.53,1.37c-5.65.44-12.84-3-16.08-7.65l-7.43-10.78c-60.05-3.69-111.1-28-139.82-69.66q-40.62-59,30.84-87.89l-37.42-54.33a39.62,39.62,0,0,0-11.26,7.2c-9.22,8.08-29.16,6.83-46.59-2.89-22.54-12.51-31.19-34.84-17.25-43.8,10.26-6.64,23.17-9.78,38.7-12.37L2272.74,30c-1.53-2.21-1.79-4.27-1-5.81s4-11.42,6.48-11.62L2295.75,20c5.15-.43,11.74,2.7,14.67,7"/></g><g id="path44823"><path class="cls-9" d="M2431.84,243.63l-33.67-48.87C2372,207.23,2397,239.79,2431.84,243.63ZM2358,78.89l31.82,46.26C2411.8,114.81,2393.33,84.89,2358,78.89Zm-43-61.68,7.51,10.92C2433.57,23.6,2530.91,145.69,2428,180.6l43.48,63.17q17.33-4.78,28.05-14.85c8.94-8.36,28.66-7.67,46.28,2.15,20.67,11.56,29.76,30.53,18.54,39.94-13.33,11-34,19.64-59.17,21.65l7.16,10.41c3.22,4.7,1.25,8.88-4.4,9.32l-16.53,1.37c-5.65.44-12.85-3-16.08-7.65l-7.43-10.78c-60.06-3.69-111.11-28-139.82-69.66q-40.62-59,30.84-87.89l-37.42-54.33a39.74,39.74,0,0,0-11.27,7.2c-9.21,8.08-29.14,6.79-46.58-2.89-22.54-12.51-31.16-33.33-17.21-42.33,10.25-6.6,23.13-11.25,38.65-13.84l-7.77-11.29c-3-4.29-1.17-8.11,4-8.52l19-1.54c5.15-.43,11.73,2.7,14.66,7"/></g><g id="path44843"><path class="cls-10" d="M2144.46,161.62c88.68,128.79,286.57,222.9,442.08,210.23,73.12-5.94,123.8-34.46,147.81-76.35,1.44-2.54,40.8-85.54,42.05-88.17,22.15-46.36-24.39-26.93-68.88-91.53C2618.86-12.93,2420.93-107,2265.43-94.42c-77.24,6.3-91.47-42.66-113.63,3.2-1.21,2.55-40.35,85.6-41.41,88.27-18,45.36-8.08,103.38,34.07,164.57"/></g><g id="g44863"><g id="g44883"><g class="cls-28"><path id="path44943" class="cls-12" d="M2709.05,348a5.74,5.74,0,0,0,7.62-2.73l71.53-151.39a5.73,5.73,0,1,0-10.35-4.92l-71.52,151.39a5.73,5.73,0,0,0,2.72,7.65"/><path id="path44963" class="cls-12" d="M2753.27,196.38l-71.51,151.35a5.8,5.8,0,0,0,2.32,7.45l.48.23a5.75,5.75,0,0,0,7.66-2.71l71.51-151.34a5.81,5.81,0,0,0-2.74-7.71l-.5-.19a5.76,5.76,0,0,0-7.22,2.92"/><path id="path44983" class="cls-12" d="M2728.69,203.8l-71.48,151.27a5.87,5.87,0,0,0,2.42,7.55l.47.27a5.84,5.84,0,0,0,7.74-2.77l71.47-151.27a5.88,5.88,0,0,0-2.76-7.76l-.51-.19a5.81,5.81,0,0,0-7.35,2.9"/><path id="path45003" class="cls-12" d="M2704.1,211.22l-71.43,151.19a5.92,5.92,0,0,0,2.48,7.63l.5.29a5.86,5.86,0,0,0,7.76-2.81l71.44-151.19a5.86,5.86,0,0,0-2.77-7.77l-.52-.25a5.89,5.89,0,0,0-7.46,2.91"/><path id="path45383" class="cls-12" d="M2200.24,265.78l.56.27a6,6,0,0,0,8-2.87l71.27-150.83a6,6,0,0,0-2.87-8.06l-.57-.27a6,6,0,0,0-8,2.88l-71.26,150.82a6.06,6.06,0,0,0,2.87,8.06"/><path id="path45403" class="cls-12" d="M2179.53,251.82l.56.26a6,6,0,0,0,8-2.89l71.26-150.83a6,6,0,0,0-2.83-8l-.56-.27a6,6,0,0,0-8,2.88l-71.26,150.82a6.1,6.1,0,0,0,2.87,8.07"/><path id="path45443" class="cls-12" d="M2218.15,57l-71.32,150.94a6.12,6.12,0,0,0,2.78,7.93l.53.25a6,6,0,0,0,8-2.82l71.32-150.94a6,6,0,0,0-2.85-8l-.53-.25a6.11,6.11,0,0,0-7.89,2.9"/><path id="path45463" class="cls-12" d="M2209.08,35l-71.35,151a6,6,0,0,0,2.72,7.85l.51.29a6,6,0,0,0,7.92-2.84l71.36-151a6,6,0,0,0-2.85-7.9l-.52-.25a6,6,0,0,0-7.79,2.85"/><path id="path45503" class="cls-12" d="M2190.94-8.92l-71.41,151.14a6,6,0,0,0,2.54,7.72l.53.25a5.87,5.87,0,0,0,7.8-2.8L2201.81-3.75a5.9,5.9,0,0,0-2.78-7.83l-.53-.25a6,6,0,0,0-7.56,2.91"/><path id="path45523" class="cls-12" d="M2181.88-30.9l-71.45,151.22a5.89,5.89,0,0,0,2.44,7.62l.53.25a5.83,5.83,0,0,0,7.74-2.77l71.45-151.23a5.86,5.86,0,0,0-2.76-7.77l-.53-.25a5.89,5.89,0,0,0-7.42,2.93"/><path id="path45583" class="cls-12" d="M2085.81,62.26a5.77,5.77,0,0,0,7.63-2.73L2165-91.86a5.77,5.77,0,0,0-2.72-7.65,5.71,5.71,0,0,0-7.63,2.73L2083.09,54.61a5.77,5.77,0,0,0,2.72,7.65"/></g></g></g><g id="path45603"><path class="cls-13" d="M2182.47,81.17C2271.15,210,2469,304.06,2624.56,291.39s209.65-127.25,121-256S2459-187.51,2303.45-174.88s-209.64,127.32-121,256.05"/></g><g id="path45623"><path class="cls-14" d="M2196,80.1c84.41,122.54,272.85,212.15,420.83,200.12S2816.39,159,2732,36.45s-272.81-212.12-420.84-200.11S2111.6-42.48,2196,80.1"/></g><g id="path45643"><path class="cls-15" d="M2242.05,76.34c69.89,101.54,225.92,175.73,348.56,165.75S2755.89,141.73,2686,40.19s-226-175.71-348.56-165.74S2172.1-25.18,2242.05,76.34"/></g><g id="path45663"><path class="cls-16" d="M2331.3-112.54c122.59-10,278.66,64.21,348.57,165.7,32.86,47.75,40.85,93,27.27,128.68-18.88,33.07-58.89,55.54-116.53,60.25-122.64,10-278.67-64.21-348.56-165.75-32.9-47.76-40.85-93-27.33-128.66,18.92-33,58.89-55.54,116.58-60.22"/></g><g id="path45683"><path class="cls-15" d="M2497,150.68l-33.64-48.91C2437.21,114.24,2462.21,146.78,2497,150.68Zm-73.89-164.8L2455,32.16C2477,21.81,2458.52-8.06,2423.14-14.12Zm-42.93-61.61,7.52,10.87c111.05-4.53,208.35,117.54,105.46,152.46l43.52,63.18c11.54-3.15,20.87-8.14,28-14.81,7.4-7,61.72,25.93,61.72,25.93l-5,15s-25.93,20.73-51.14,22.78l12.7,3.91c1.61,2.35-3.59,11.05-4.39,12.75s-2.72,2.83-5.56,3.07l-16.51,1.33c-5.65.44-12.84-3-16.08-7.65l-7.43-10.77c-60.06-3.69-111.12-28-139.78-69.65q-40.68-59,30.84-87.89L2386.69-9.56C2382.89-8,2340,13.79,2340,13.79l-41.91-48.18,5.27-9.8s35.47-15.27,46.89-17.23l-7.78-11.29c-1.53-2.22-1.79-4.28-1-5.82s4-11.36,6.46-11.57l17.49,7.37c5.19-.41,11.74,2.71,14.71,7"/></g><g id="path45703"><path class="cls-14" d="M2501.65,140.91,2468,92C2441.8,104.51,2466.8,137.05,2501.65,140.91ZM2427.73-23.85l31.87,46.28C2481.57,12.08,2463.12-17.79,2427.73-23.85ZM2384.82-85.5l7.51,10.92C2503.38-79.11,2600.67,43,2497.79,77.87l43.52,63.19c25.23-5.75,38.35-18.75,38.35-18.75l47.27,39.44s-26.76,26.16-52,28.22l7.16,10.4c3.24,4.67,1.27,8.84-4.4,9.32L2561.19,211c-5.65.44-12.84-3-16.08-7.64l-7.42-10.78c-60.06-3.69-111.11-28-139.78-69.65q-40.69-59,30.84-87.89l-37.46-54.35c-3.81,1.57-46.78,22.88-46.78,22.88l-42-47.58s36.91-24.5,52.41-27.16l-7.77-11.29c-2.93-4.27-1.13-8.08,4-8.47l19-1.59c5.19-.41,11.73,2.71,14.7,7"/></g><g id="path44764"><path class="cls-7" d="M1803.28,257.73c-59.47,86.34-192.24,149.48-296.51,141S1366.11,313.34,1425.62,227s192.2-149.47,296.51-141,140.62,85.4,81.15,171.75"/></g><g id="path44784"><path class="cls-8" d="M1727.34,97c-104.3-8.46-237,54.66-296.51,141-28,40.64-34.75,79.15-23.22,109.44,16.08,28.16,50.09,47.29,99.16,51.28,104.27,8.48,237-54.66,296.51-141,28-40.62,34.75-79.15,23.22-109.44-16.08-28.16-50.12-47.27-99.16-51.28"/></g><g id="path44804"><path class="cls-7" d="M1586.35,320.94,1615,279.36C1637.26,290,1616,317.67,1586.35,320.94Zm62.85-140.15-27.08,39.36C1603.4,211.35,1619.11,185.9,1649.2,180.79Zm36.54-52.46-6.39,9.28c-94.47-3.85-177.27,100-89.75,129.71l-37,53.74c-9.83-2.72-17.79-6.91-23.86-12.64-7.61-7.11-24.36-6.49-39.36,1.87-14.42,8-24.43,15.63-21.53,24.18.64,1.89,4,8.29,5.75,9.76,11.34,9.39,28.89,16.71,50.33,18.42L1513.15,366c-1.37,2,3.09,9.38,3.76,10.8s2.29,2.45,4.69,2.62l14.06,1.17a16.83,16.83,0,0,0,13.68-6.51l6.32-9.17c51.09-3.14,94.52-23.83,118.94-59.26q34.56-50.21-26.23-74.77l31.83-46.22a34.1,34.1,0,0,1,9.59,6.13c7.83,6.87,24.8,5.81,39.62-2.46,19.18-10.64,26.54-29.64,14.68-37.26-8.73-5.65-19.71-8.32-32.92-10.53l6.62-9.6c1.3-1.89,1.52-3.64.81-4.95s-3.36-9.72-5.51-9.88l-14.88,6.27a15.2,15.2,0,0,0-12.47,5.94"/></g><g id="path44824"><path class="cls-9" d="M1582.44,312.66l28.64-41.57C1633.35,281.7,1612.05,309.39,1582.44,312.66Zm62.85-140.14-27.08,39.35C1599.49,203.08,1615.2,177.62,1645.29,172.52Zm36.54-52.47-6.39,9.29c-94.47-3.85-177.27,100-89.75,129.71l-37,53.74q-14.75-4.08-23.86-12.64c-7.61-7.11-24.38-6.53-39.37,1.83-17.58,9.84-25.32,26-15.77,34,11.34,9.38,28.89,16.7,50.33,18.42l-6.09,8.85c-2.74,4-1.06,7.55,3.75,7.93l14.06,1.16a16.79,16.79,0,0,0,13.68-6.5l6.32-9.17c51.09-3.14,94.52-23.83,118.94-59.27q34.56-50.19-26.23-74.76l31.83-46.22a33.84,33.84,0,0,1,9.59,6.12c7.83,6.88,24.78,5.78,39.62-2.46,19.18-10.64,26.51-28.35,14.64-36-8.71-5.61-19.67-9.56-32.88-11.77l6.62-9.61c2.52-3.65,1-6.89-3.42-7.24l-16.16-1.31a15.2,15.2,0,0,0-12.47,5.93"/></g><g id="path44844"><path class="cls-10" d="M1826.92,242.9c-75.44,109.56-243.79,189.62-376.09,178.84-62.2-5.05-105.31-29.31-125.73-64.95-1.23-2.16-34.72-72.77-35.78-75-18.84-39.43,20.75-22.91,58.6-77.86C1423.34,94.41,1591.72,14.34,1724,25.08c65.72,5.36,77.82-36.28,96.67,2.72,1,2.17,34.32,72.82,35.23,75.1,15.29,38.59,6.87,87.94-29,140"/></g><g id="g44864"><g id="g44884"><g class="cls-29"><path id="path44944" class="cls-12" d="M1346.62,401.45a4.88,4.88,0,0,1-6.48-2.32l-60.85-128.79a4.93,4.93,0,0,1,2.31-6.51,4.88,4.88,0,0,1,6.49,2.33l60.85,128.78a4.89,4.89,0,0,1-2.32,6.51"/><path id="path44964" class="cls-12" d="M1309,272.47l60.83,128.75a4.93,4.93,0,0,1-2,6.34l-.41.2a4.9,4.9,0,0,1-6.52-2.31L1300.1,276.7a4.94,4.94,0,0,1,2.33-6.56l.43-.16a4.91,4.91,0,0,1,6.14,2.49"/><path id="path44984" class="cls-12" d="M1329.91,278.78l60.81,128.68a5,5,0,0,1-2.06,6.43l-.4.23a5,5,0,0,1-6.58-2.36l-60.81-128.68a5,5,0,0,1,2.36-6.61l.42-.16a5,5,0,0,1,6.26,2.47"/><path id="path45004" class="cls-12" d="M1350.83,285.09l60.77,128.62a5,5,0,0,1-2.11,6.49l-.43.25a5,5,0,0,1-6.6-2.39l-60.77-128.62a5,5,0,0,1,2.35-6.61l.44-.21a5,5,0,0,1,6.35,2.47"/><path id="path45384" class="cls-12" d="M1779.46,331.51l-.48.23a5.14,5.14,0,0,1-6.84-2.45L1711.52,201a5.15,5.15,0,0,1,2.44-6.87l.48-.22a5.1,5.1,0,0,1,6.84,2.44l60.62,128.31a5.16,5.16,0,0,1-2.44,6.86"/><path id="path45404" class="cls-12" d="M1797.08,319.63l-.48.22a5.12,5.12,0,0,1-6.8-2.46l-60.62-128.3a5.13,5.13,0,0,1,2.4-6.85l.48-.23a5.13,5.13,0,0,1,6.84,2.45l60.63,128.3a5.2,5.2,0,0,1-2.45,6.87"/><path id="path45444" class="cls-12" d="M1764.23,153.88l60.67,128.41a5.2,5.2,0,0,1-2.37,6.74l-.44.21a5.09,5.09,0,0,1-6.78-2.39l-60.67-128.41a5.13,5.13,0,0,1,2.42-6.81l.45-.22a5.21,5.21,0,0,1,6.72,2.47"/><path id="path45464" class="cls-12" d="M1771.94,135.18l60.7,128.48a5.12,5.12,0,0,1-2.31,6.67l-.44.25a5.08,5.08,0,0,1-6.73-2.41l-60.71-128.48a5.08,5.08,0,0,1,2.42-6.73l.45-.21a5.1,5.1,0,0,1,6.62,2.43"/><path id="path45504" class="cls-12" d="M1787.37,97.82l60.75,128.58A5.09,5.09,0,0,1,1846,233l-.45.21a5,5,0,0,1-6.63-2.38l-60.76-128.58a5,5,0,0,1,2.37-6.66l.45-.21a5.06,5.06,0,0,1,6.43,2.48"/><path id="path45524" class="cls-12" d="M1795.08,79.12l60.78,128.65a5,5,0,0,1-2.07,6.47l-.45.22a5,5,0,0,1-6.58-2.36L1786,83.45a5,5,0,0,1,2.35-6.61l.45-.21a5,5,0,0,1,6.31,2.49"/><path id="path45584" class="cls-12" d="M1876.81,158.37a4.91,4.91,0,0,1-6.49-2.32L1809.47,27.26a4.87,4.87,0,1,1,8.8-4.19l60.85,128.79a4.9,4.9,0,0,1-2.31,6.51"/></g></g></g><g id="path45604"><path class="cls-13" d="M1794.58,174.45C1719.14,284,1550.79,364.07,1418.49,353.29S1240.14,245,1315.58,135.48s243.8-189.59,376.08-178.84S1870,64.94,1794.58,174.45"/></g><g id="path45624"><path class="cls-14" d="M1783.08,173.55C1711.27,277.79,1551,354,1425.07,343.79s-169.76-103.09-98-207.37S1559.17-44,1685.1-33.82s169.77,103.09,98,207.37"/></g><g id="path45644"><path class="cls-15" d="M1743.89,170.35c-59.45,86.38-192.19,149.5-296.51,141S1306.78,226,1366.23,139.6,1558.47-9.88,1662.74-1.4,1803.4,84,1743.89,170.35"/></g><g id="path45664"><path class="cls-16" d="M1668,9.67c-104.28-8.52-237.06,54.62-296.53,141-28,40.62-34.75,79.15-23.2,109.47,16.07,28.13,50.1,47.25,99.14,51.25,104.32,8.5,237.06-54.62,296.51-141,28-40.63,34.76-79.15,23.26-109.45C1751.05,32.79,1717,13.65,1668,9.67"/></g><g id="path45684"><path class="cls-15" d="M1527,233.59,1555.61,192C1577.88,202.59,1556.61,230.27,1527,233.59ZM1589.84,93.4l-27.11,39.37C1544.05,124,1559.74,98.55,1589.84,93.4ZM1626.37,41,1620,50.23c-94.47-3.85-177.24,100-89.71,129.7l-37,53.75c-9.82-2.68-17.76-6.93-23.85-12.6-6.3-5.94-52.5,22.06-52.5,22.06l4.22,12.77s22.05,17.63,43.5,19.38l-10.8,3.32c-1.37,2,3,9.4,3.74,10.85s2.31,2.4,4.72,2.61l14,1.13a16.83,16.83,0,0,0,13.68-6.5l6.32-9.17c51.09-3.14,94.53-23.8,118.91-59.25q34.6-50.22-26.24-74.77l31.87-46.23c3.24,1.33,39.69,19.85,39.69,19.85l35.65-41-4.49-8.34s-30.17-13-39.88-14.65l6.61-9.61c1.3-1.88,1.53-3.64.82-4.95s-3.39-9.66-5.49-9.84L1638.88,35A15.28,15.28,0,0,0,1626.37,41"/></g><g id="path45704"><path class="cls-14" d="M1523.06,225.28l28.64-41.57C1574,194.31,1552.7,222,1523.06,225.28Zm62.87-140.16-27.11,39.37C1540.14,115.68,1555.83,90.27,1585.93,85.12Zm36.51-52.45L1616.05,42c-94.47-3.85-177.24,100-89.71,129.69l-37,53.75c-21.47-4.89-32.63-16-32.63-16L1416.48,243s22.76,22.25,44.21,24l-6.09,8.85c-2.75,4-1.07,7.52,3.75,7.93l14.05,1.14a16.84,16.84,0,0,0,13.68-6.51l6.32-9.17c51.09-3.14,94.51-23.83,118.91-59.25q34.61-50.22-26.24-74.77L1616.94,89c3.24,1.33,39.79,19.46,39.79,19.46L1692.5,68s-31.4-20.85-44.59-23.11l6.61-9.6c2.5-3.64,1-6.88-3.4-7.21L1635,26.72a15.29,15.29,0,0,0-12.51,6"/></g><g id="path44765"><path class="cls-7" d="M136.53,1355.1C15.77,1286.16-97.93,1118.34-117.4,980.32s62.68-194.1,183.47-125.11S300.51,1091.92,320,1230,257.29,1424,136.53,1355.1"/></g><g id="path44785"><path class="cls-8" d="M308.22,1238C288.72,1100,175.05,932.19,54.29,863.25-2.54,830.8-50.79,826-83.93,844.45c-29.3,24.16-42.63,70.92-33.47,135.87,19.47,138,133.17,305.84,253.93,374.78,56.8,32.4,105.08,37.2,138.22,18.8,29.3-24.17,42.6-71,33.47-135.88"/></g><g id="path44805"><path class="cls-7" d="M-1.2,1076.63,57,1109.83C50.53,1140.25,11.16,1115.21-1.2,1076.63Zm186.43,67.61-55-31.38C135.44,1087.3,170.53,1105.23,185.23,1144.24Zm73.49,42.42-13-7.4C223.49,1054.63,75,956.89,64.21,1075.16l-75.16-42.88q.7-19.81,8.42-32.73C3.85,988.78-1.66,966.82-16,948c-13.77-18.11-25.75-30.46-35.2-25.73-2.09,1.05-8.82,6.21-10.11,8.61-8.06,15.92-11.87,39.79-7.83,68.16l-7.11-13.83c-2.8-1.58-10.41,5.07-11.92,6.1s-2.3,3.28-1.82,6.45l2.6,18.61c.92,6.37,6.15,14.1,11.71,17.29l12.83,7.33c18.31,66.84,55.55,121.73,105.11,150q70.2,40.05,82.46-42.52l64.64,36.9a39.48,39.48,0,0,1-4.64,13.27c-6,11,.06,33.24,14.23,51.84,18.25,24.07,43.19,31.71,49,15.31,4.3-12.09,4.39-26.82,3.29-44.42l13.44,7.67c2.63,1.5,4.8,1.61,6.18.54s10.73-5.47,10.32-8.3l-11.78-18.9c-.81-5.8-5.61-12.88-10.69-15.77"/></g><g id="path44825"><path class="cls-9" d="M7.64,1070.61l58.15,33.2C59.37,1134.23,20,1109.18,7.64,1070.61Zm186.43,67.6-55-31.38C144.28,1081.27,179.37,1099.2,194.07,1138.21Zm73.49,42.43-13-7.41c-22.24-124.63-170.7-222.37-181.52-104.1l-75.16-42.88q.71-19.82,8.42-32.73c6.38-10.77.9-32.75-13.41-51.58-16.83-22.05-38.44-30.5-45.35-17.09-8.06,15.92-11.87,39.79-7.83,68.16L-72.66,986c-5.59-3.17-9.39-.58-8.47,5.78l2.6,18.62c.92,6.36,6.15,14.09,11.71,17.29L-54,1035c18.31,66.84,55.55,121.73,105.11,150q70.2,40.07,82.46-42.51l64.64,36.9a39.51,39.51,0,0,1-4.64,13.26c-6,11,.1,33.21,14.23,51.84,18.25,24.07,41.64,31.81,47.48,15.39,4.27-12.06,5.9-26.9,4.8-44.5l13.44,7.67c5.11,2.93,8.57.57,7.73-5.28l-3-21.38c-.81-5.8-5.61-12.88-10.69-15.76"/></g><g id="path44845"><path class="cls-10" d="M161.09,1384.59C7.87,1297.14-136.31,1084.36-161,909.25c-11.62-82.33,5.29-141.63,42.34-172.29,2.25-1.85,77.64-53.45,80-55.09,42.07-29,33.46,24.82,110.31,68.7C224.86,838,369.06,1050.82,393.78,1225.91c12.24,87,65.78,98.43,24.23,127.4-2.32,1.59-77.82,52.94-80.3,54.38-42.06,24.23-103.81,18.46-176.62-23.1"/></g><g id="g44865"><g id="g44885"><g class="cls-30"><path id="path45385" class="cls-12" d="M41,1331.69l-.41-.61c-2.21-3.26-1.73-7.4,1-9.26l137.06-93.46c2.76-1.89,6.74-.79,9,2.47l.41.61c2.21,3.26,1.76,7.37-1,9.26L50,1334.16c-2.73,1.86-6.74.79-8.95-2.47"/><path id="path45405" class="cls-12" d="M60.33,1353.58l-.41-.61c-2.18-3.21-1.7-7.35,1-9.21L198,1250.3c2.76-1.89,6.74-.79,8.91,2.43l.42.61c2.17,3.21,1.76,7.37-1,9.25L69.28,1356.06c-2.73,1.86-6.77.74-9-2.48"/><path id="path45445" class="cls-12" d="M250.32,1292.62l-137.17,93.54c-2.69,1.83-6.52.63-8.78-2.4l-.39-.56c-2.17-3.22-1.73-7.33,1-9.16l137.17-93.54c2.73-1.86,6.7-.76,8.88,2.45l.38.57c2,3.22,1.64,7.26-1.05,9.1"/><path id="path45465" class="cls-12" d="M275,1300.75l-137.24,93.59c-2.65,1.81-6.42.69-8.69-2.33l-.42-.54c-2.15-3.17-1.7-7.29,1-9.12l137.25-93.59c2.69-1.84,6.63-.71,8.78,2.46l.38.56c2,3.23,1.62,7.16-1,9"/><path id="path45505" class="cls-12" d="M324.33,1317,187,1410.7c-2.58,1.76-6.29.73-8.5-2.14l-.38-.56c-2.12-3.13-1.69-7.18,1-9l137.36-93.66c2.65-1.81,6.56-.73,8.68,2.4l.38.56c1.85,3.12,1.44,7-1.14,8.72"/><path id="path45525" class="cls-12" d="M349,1325.16l-137.43,93.72c-2.54,1.73-6.19.79-8.38-2l-.38-.57c-2.12-3.13-1.66-7.13,1-8.91l137.43-93.72c2.61-1.78,6.5-.74,8.61,2.38l.39.57c1.78,3.1,1.34,6.83-1.2,8.56"/><path id="path45585" class="cls-12" d="M277,1441.12c-2.06-3-1.63-7,.95-8.78l137.57-93.81c2.62-1.79,6.42-.7,8.49,2.34s1.66,7-.95,8.78l-137.58,93.82c-2.58,1.75-6.39.73-8.48-2.35"/></g></g></g><g id="path45605"><path class="cls-13" d="M234.21,1334.73C81,1247.28-63.19,1034.5-87.87,859.39S-8.41,613.26,144.82,700.71,442.18,1001,466.89,1176.05s-79.52,246.11-232.68,158.68"/></g><g id="path45625"><path class="cls-14" d="M232,1319.51C86.23,1236.27-51,1033.65-74.56,867S1.12,632.74,147,716s283,285.81,306.59,452.49S377.87,1402.72,232,1319.51"/></g><g id="path45645"><path class="cls-15" d="M224.73,1267.64C103.93,1198.73-9.75,1031-29.2,892.87s62.67-194,183.47-125.12,234.47,236.76,253.93,374.78-62.68,194.09-183.47,125.11"/></g><g id="path45665"><path class="cls-16" d="M396.38,1150.59c-19.43-138-133.14-305.86-253.9-374.8C85.68,743.39,37.41,738.58,4.23,757-25,781.16-38.34,828-29.2,892.87-9.75,1031,103.93,1198.73,224.73,1267.64c56.83,32.45,105.08,37.21,138.25,18.84,29.22-24.18,42.56-70.94,33.4-135.89"/></g><g id="path45685"><path class="cls-15" d="M87,989.21l58.19,33.17C138.72,1052.8,99.38,1027.8,87,989.21Zm186.49,67.62-55.06-31.43C223.67,999.89,258.69,1017.8,273.45,1056.83Zm73.43,42.4-12.95-7.42c-22.24-124.63-170.68-222.34-181.5-104.06L77.25,944.83c.43-13.19,3.28-24.09,8.38-32.71,5.34-8.91-41.48-66.67-41.48-66.67L30,852.37s-14.93,30.89-10.93,59.28L12,897.8c-2.8-1.58-10.44,5-12,6.08s-2.23,3.3-1.79,6.49L.85,929c.92,6.36,6.16,14.1,11.72,17.29l12.82,7.33c18.31,66.84,55.52,121.75,105.09,150q70.25,40.13,82.46-42.51L277.6,1098c-.67,4.41-12.59,54.32-12.59,54.32l59.43,42.49,8.76-6.8s7-41.07,6.28-54l13.43,7.67c2.64,1.5,4.81,1.61,6.19.54s10.66-5.49,10.27-8.28l-11.78-18.89c-.83-5.85-5.6-12.88-10.71-15.82"/></g><g id="path45705"><path class="cls-14" d="M95.84,983.15l58.15,33.2C147.56,1046.77,108.22,1021.77,95.84,983.15Zm186.45,67.65-55.06-31.43C232.51,993.86,267.53,1011.77,282.29,1050.8Zm73.47,42.38-13-7.4c-22.24-124.63-170.68-222.33-181.5-104.06L86.09,938.8c-.22-28.75,9.9-44.61,9.9-44.61L44.2,844.91s-20.29,32.32-16.29,60.71l-12.38-7c-5.56-3.2-9.35-.61-8.47,5.77l2.63,18.6c.92,6.36,6.16,14.09,11.72,17.29l12.82,7.32c18.31,66.84,55.56,121.73,105.09,150q70.25,40.13,82.46-42.51l64.67,37c-.68,4.4-12.08,54.41-12.08,54.41l58.84,42.69s16.14-43.53,15.11-61.11l13.43,7.67c5.08,2.89,8.54.52,7.7-5.25l-3-21.41c-.83-5.84-5.6-12.88-10.71-15.81"/></g><path class="cls-31" d="M500.41,2004.85c10.06-15.79,20.38-72.71,38.4-73.57,83-4,150.1,70.45,163.55,86.46,59.26,70.43,236.49,363.42,227,459.13-5.05,50.79-53.85,92.48-87.22,126.55-59,60.33-58.4,94-135.82,58.14-21.79-10.08-51-14.28-67.75-33.84-111.65-130.22-140.9-250.62-140.94-424.2"/><path class="cls-20" d="M528.07,1997.08c12.42-30.56,47.56-57.4,70.23-79.72,41.62-41,84.19-90.08,114.63-140.11,78.44-128.87,133.3-266.75,200.16-401.6,11.49-23.19,28.29-39.87,42.16-61.16,21-32.27,35.18-69,54.78-102.26,61.36-104.33,90-225.36,127.8-339.28,9.2-27.75,23.64-120.7,73.6-91.49,32.9,19.24,42,66.59,55,99.2,40,100.55,49,204,15.15,307-6.14,18.71-19.76,35.41-23.7,54.84-4.78,23.74-5.66,49.27-12.32,72.57-1.17,4.14-11.13,38.48-6.9,40.89.65.35,146.18-27.31,163.23-28.68,107.87-8.71,194.81,58.77,294.28,87.7,39,11.34,120.27,41.16,137.28,82.9,9.2,22.55-16.92,126-40.12,134.74-32.86,12.37-81.33,1.73-85.09,10.16-10,22.23-13.73,67.72-16.55,91.93-.63,5.38-11.09-.51-11.68,8.91-1.65,26.57,8.06,52.23,4.27,80.06-2.65,19.62-3.83,39.94-7.24,59.35-.78,4.45-14.72,10.24-14.42,13.39.61,6.57,9.91,13.7,11.74,20.86,11.71,45.66,12.19,110.73-5.66,155.65-12.82,32.21,11.81-27.75-2.78-5.91-41.68,62.41-119.3,115.73-193.34,146.57-52.29,21.79-88.56,33.72-143.23,45.34-69.81,14.82-286.87-5.2-326.83,15.9C962.22,2296.11,880,2438.64,857.82,2481c-11.89,22.76-33.72,79.68-66.43,76.72-36.57-3.31-107.75-74.48-128.35-101.37C574.18,2340.46,539.25,2288,509.61,2148.4c-8.4-39.62-31.13-131.91,8.95-164.18"/><path class="cls-21" d="M1120.36,927.58c-1.12,31.94-5.71,74.89,11.68,82.2s60.32-4,72.86-18.71c6.36-7.46,6.8-16.54,6.91-26,0-1.54,1-13.45,1.81-8.8,16.29,87.87-96,48.84-112.86,118.69-13.2,54.78-24.55,110-50.82,160.8-15,29.12-44.92,55.27-65.36,80.86-18.47,23.13-31.94,57.24-44.84,84-17,35.1-21.71,77.76-35,114.53-41.18,113.88-80.1,231-93.11,352.14-5.45,50.71-2.13,161.21,26.5,204.35,14.11,21.27,40.82,39.26,63.64,48.35,5.87,2.34,37.77,4.77,35.49,14-7.64,31-97.11,2.91-114.94-6.47-3.93-2-30.12-16.32-31.83-4.83-.69,4.66,8.53,15.1,10.61,19.24,24.09,47.49,50.4,74.72,92.14,106.46,6.4,4.88,53.52,16.41,49,22.49-15.43,20.68-61.74-7.45-76.58-14.57-48.82-23.4-96.27-52.42-140.12-83.87-17.92-12.84-43.24-36-68.25-29.5-19,4.92-39.52,41.63-51.79,55.44a602,602,0,0,1-64.36,61.81c-12.08-31.63-22.06-67.28-31.51-111.76-8.4-39.62-31.13-131.91,8.95-164.18l9.51,12.86c12.42-30.56,47.56-57.4,70.23-79.72,41.62-41,84.19-90.08,114.63-140.11,78.44-128.87,133.3-266.75,200.16-401.6,11.49-23.19,28.29-39.87,42.16-61.16,21-32.27,35.18-69,54.78-102.26C1061.65,1124.44,1090.11,1024.84,1120.36,927.58Z"/><path class="cls-22" d="M1696.46,1693.87a32.3,32.3,0,0,1-3.64,1.69c-16.34,6.42-31.16,14.28-48.19,19.39-33.64,10.12-68.61,14.64-102.16,25.6-37.86,12.35-77.22,31.36-118,32.16-21.07.42-41.37,4.92-62.65,3.91-9.37-.44-18.57-3.06-28-3.76-36.61-2.66-73.28-3.61-109.89-5.81-14.86-.89-30-2.22-44.82-2.49-8.69-.17-19.93.15-27.17-5.74-5.37-4.38-6.15-11.37-8.19-17.55-7.9-23.89,3-50.25,6.38-73.92,1.15-8.09,3.47-16.12,4.8-24.18.29-1.78,1.85-7.06-.47-7.86-10.23-3.57-16.56,18.52-19.26,24.41-5.07,11.11-7.45,23.28-12.63,34.28-7.33,15.59-17,35.08-15.26,53.12,1.91,19.34,33.87,27.3,47.76,32.08,32.07,11,64.27,21.94,96.86,31.44,16,4.67,33.77,2.35,45.54,16.54,2.27,2.74.86,7.69.75,10.83-.33,9-.82,18.61-.06,27.56,1.64,19.75,2,39.39,4.63,59,1.81,13.69-.27,26.8,7.9,38.8,6.56,9.69,29,17,40,17.67,7.49.45,19.47-2.19,26.16,2.47.11.07-3.72,2.28-4.1,2.5-3,1.54-6,3-9.12,4.41-6.73,3-26,11.24-28.82,18.42-8.17,20.88-2.29,47.62-.15,69,.74,7.33-1,20.28,4,26.23,2.68,3.21,14.84,4.61,18.84,5.47,19,4.16,36.34,8.13,55.9,6.15,62.1-6.25,124.9-6.13,187-12.57,4.73-.48,9.47-1,14.21-1.43,15.85-12.19,42.1-.38,53.72-27.78-3.54-.82-8.17-.54-10.61-.48-20.44.55-40.73,2.47-61.2,2.47-18.59,0-37.76,2.62-56.39,3.78-36.8,2.3-74.88.11-111.35-4.56-19.62-2.52-44.29,0-55.4-20.61a57.56,57.56,0,0,1-5.69-17.79c-1.05-6.52-4.08-15.62-1.74-22.24,2.46-7,13.91-10.55,20-12.31a289.2,289.2,0,0,1,53.48-10.35c33.87-3.21,67.49-12.35,100.26-21.07,27.08-7.2,54.74-13.88,81-23.57,15.41-5.68,41.16-7.61,56.44-18q-1.23-6.15-2.72-12c-1.28-5-6.21-10-9.28-14.8l-1.62.25c-7.92,1.29-14.9,5-22.69,6.61-20.42,4.12-41,8.2-61.2,13.07-52.88,12.82-111,28-165.78,21.21-18-2.26-43.14-2.2-57-16.52-5.75-5.91-6.25-15.24-7.43-22.83-2.4-15.41-4.8-30.92-6.23-46.42a94.47,94.47,0,0,1,.35-17.4c.21-2.11,4.15-5.3,5.52-6.65,10.9-10.75,22.44-13.26,36.92-17.32,15.22-4.29,30.72-8.85,46.27-11.64,33.54-6,67.6-12.79,100.74-20.8,32.77-7.94,65.45-20.15,98.79-25.55,15.24-2.47,30.74-12.72,45.92-15.74.82-.17,1.68-.31,2.58-.5,1.5-7.46,10.91-2.43,11.52-7.54C1692.94,1724,1694.37,1709.08,1696.46,1693.87Z"/><path class="cls-22" d="M1308,1856.28c8.23,8.17,6.7,29.44,8.38,39.73,7.35,44.64,6.95,93,1.56,137.9-1.73,14.43-3.24,30.16-7.85,44-1.43,4.29-4.11,15.25-11.64,13-4.28-1.26-4.3-11.68-4.8-15-2.51-16-4.57-30.71-4.57-47,0-40.36,1.43-80.68-.53-121-1-22,.57-50.52-9.07-70.9-2.74-5.81-30-12.8-30.15-6.8-.33,11,9.05,23,11.33,33.85,4.78,22.66,4,43.55,2.9,66.42-.14,2.79.51,30.27-7,29.76-8.63-.61-5.3-34.87-5.58-41-.9-19.86-4-40.53-6.69-60.22-1-7.49-1.18-19.83-5.26-26.42-2.61-4.22-10.61-4.14-14.38-6.31-6.93-4-11.75-13.14-21.16-12.33-5.09.42-7.81,12.79-9,16.3-6.63,18.88-14,37.49-18.76,57-17.87,72.65-36.25,149.15-86.37,207.14-15.77,18.25-38.84,28.49-57.87,42.89-2.32,1.78-13.81,13.56-17.5,9.49-8.9-9.87,11.1-46.26,14.74-55.91,22-58.26,44.71-104.22,57-166.08,4.86-24.5,8.25-49.76,11.41-74.57,1.34-10.56,5.09-27.79,1.7-38.27-.48-1.5-6.21,8.85-6.63,9.57-4.29,7.88-7.16,16.83-11.89,24.43-.55.89-6.7,7.9-8.36,5.11-4.21-7.07,6-24.16,7.45-31.61,6.42-33.67,26.86-60.59,33.77-94.66,2.15-10.64,4.19-21.41,6.95-32,.29-1.18,1.26-8.11,3.07-8.55,2.36-.55,3.16,6.29,3.3,7.35,1.35,9.16.26,18.43,1.84,27.58,4.65,27.14,8.1,32.33,26.14,51.78,3.39,3.65,5.35,8.93,9.9,11.45,27,14.84,64.77,1.16,93.53,4.88,15.51,2,32.73,3.08,39.49,19.74"/><path class="cls-22" d="M1745.78,1463.44c-13.85-.65-27.74,2-41.68,2-32.67,0-67-3.72-92.35,20.93-15,14.57-24.59,42.21-28.53,62.51-1.56,8-2.65,22.79-14.74,18.67-4.54-1.54-2.92-14-2.69-17.36,1.56-21,4.69-41.84,5.39-62.9.08-2.3,1.54-20.48-2.34-21.6-2.4-.7-8.78,20.55-9.47,23-3.73,13.33-8.06,50-14.8,60.21-1.89,2.9-7.94,2.77-10.8,3.23s-13.2,3.66-15.81,1.35,1.39-18.07,1.9-21.14a531,531,0,0,0,6.33-62.17c.23-4.9.28-10.16.76-15,0-.4.93-9.08.61-9-5,1-10.36,19.6-11.73,23.47-8.5,24.12-12.25,50-21.15,73.79-9.41,25.19-54.48,26.9-76,30.62-6.88,1.18-13.45,6.29-20.44,6.17-4-.09.88-21.46,1.2-23.19,4.9-27.08-3.83-36.3-11-12.21-3,10.14-4.4,24.71-10.63,33.62-9.41,13.44-43.51,12.8-57.28,14.11-15,1.46-29.47,6.15-44.32,8.6-22.73,3.78-46.79,2.49-69.47,6.48-8.63,1.5-19.17,4.63-28,2.26-23.52-6.31-6.36-36.79-.42-50.2,14-31.53,30.06-63.27,40.16-96.39,4.93-16.15,7.1-32.61,15.64-47.16,7.06-12.06,46.53,6.28,49.9,2.35,5.62-6.53-4.09-15.27-8.7-18-10.12-5.88-37.2-18.67-49.62-12.74-2.65,1.27-2.48,8.34-3.13,10.69-3,10.94-5.58,21.94-8.78,32.82-10.72,36.34-25,72.14-40.63,106.69-10.29,22.79-21.75,45.28-34,67-2.59,4.56-24.78,32.67-16.76,36.14,36.19,15.63,106.27-6.93,141-19.28,26.42-9.4,54.25-12,81.65-16.77,44.91-7.8,88.78-17.87,134.21-21.25,27.18-2,58.46-5.57,85.17,1.69,10.3,2.81,5.5,20.78,15.29,27.37,24.94,16.83,63.76,17.7,92.35,23.36,11.83,2.34,20.76,8.4,32.78,2.53,7.13-3.48-25.56-8.78-27.41-9.48-16.15-6.15-30.82-15.73-45.77-24.41-6.42-3.74-14.29-6.47-16.4-14.45-6.59-25,5.54-93.11,30.46-107.16,16.36-9.23,38.51-6.44,56.32-8.15Z"/><path class="cls-23" d="M1734.1,1533.64c-1.1,7.94-3.69,15.84-5,23.78-3.86,22.26-8.4,50.46-30.76,61.86-5.56,2.83-11.47,2.22-17.54,2.22-13.24,0-26.25-2.62-39-5.81-5.91-1.48-12.5-1.69-18.54-2.58-1-.14-5.33-.16-5.92-1.52-1.32-3.12-.78-6.52-2-9.71-1.12-2.87-2.25-5.41-1.83-8.47.13-.93,3.16-1.71,3.81-1.54,4.76,1.37,9.22,2.24,14.17,3.29,7.22,1.54,14.73,1.46,22,3.19,12,2.81,25.68,6.19,38.08,5.15,6-.5,10.61-5.08,15.22-8.44,6.29-4.59,13.09-10,16.55-17.22,2.33-4.92,1.64-9.94,2.73-15.07,1.83-8.83,4.78-16.79,5.12-25.88"/><path class="cls-23" d="M1191.62,1713c-.8,15.35.88,38.61-9.45,51.45-5,6.18-34.42,11.15-35.56,4.09-2.06-12.94,18.13-10.81,22.55-18.92,8-14.74,8.29-35.76,10.63-52.23"/><path class="cls-32" d="M657.39,2583.37c-24.86-27-31.07-77.95-41.83-111.63-39.64-124.12-66-248.22-77.3-378.14-3.81-43.8-2.55-87.58-2-131.22.07-4.45,2.84-24.71-.1-28.11-20.53-23.65-158.65,9.36-184.73,22.31-56.69,28.15-54.67,65.3-65.16,124.79-1.6,9.16-.94,29-8.06,36.11C227.58,2168.06,72.9,2215.22,51.59,2270c-10.82,27.79,1.85,72-1.24,101.48-8.06,77.23-31.49,161.39-24.93,239.28,2.32,27.45,80.88,12.14,95.43,11.15,80.65-5.52,166.92-4.16,247.74-.34,26.06,1.22,51.15,9.57,76.94,10.66"/><path class="cls-33" d="M537,1953.15l-3.62,4c-17.29,44.16-3.37,105.68-3.35,151.78,0,82.79-6.21,164.62-1.64,247.62,2.23,40.19,19.93,86.63,11.64,126.25-10.76,51.3-144.56,145.28-184.67,85.45-13.22-19.74-61.15-322.55-65.47-363.48-.4-3.76-.52,7.56-1.22,11.28-1,5.36-3.34,10.64-4.69,16-3.9,15.53-5.83,32-8.19,47.88-6.72,45.15,10.8,112.9-16.76,153.62-9.13,13.52-150.5,31.17-173.4,37.28-8.15,2.17-30.8,11.38-53,19.09-6.13,40.76-10.44,81.63-7.14,120.89,2.32,27.45,80.88,12.14,95.43,11.15,80.65-5.52,166.92-4.16,247.74-.34,26.06,1.22,51.15,9.57,76.94,10.66l211.86-48.89c-24.86-27-31.07-77.95-41.83-111.63-39.64-124.12-66-248.22-77.3-378.14-3.81-43.8-2.55-87.58-2-131.22C536.28,1960.82,536.66,1957.25,537,1953.15Z"/></g></g></svg>