<svg width="43" height="31" viewBox="0 0 43 31" fill="none" xmlns="http://www.w3.org/2000/svg">
	<mask id="mask-7">
		<circle cx="28" cy="15" r="14.5" fill="black"></circle>	
		<circle cx="15" cy="15" r="14.5" fill="white"></circle>
		<path d="M30 15.4912C30 22.1186 25.0782 27.4912 20.9721 27.4912C16.7174 25.9912 13 21.6186 13 14.9912C13 8.36379 18.3105 2.49121 21.4968 2.49121C25.7452 2.99121 30 8.86379 30 15.4912Z" fill="black"></path>
	</mask>
	<rect mask="url(#mask-7)" width="100%" height="100%" fill="#B4A5FC" fill-opacity="0.3"></rect>

	<circle cx="28" cy="15.5" r="14.5" stroke="#A78BFA"></circle>
	<circle cx="15" cy="15.5" r="14.5" stroke="#A78BFA"></circle>
	<path d="M6.41477 19.5H5.30682L8.51136 10.7727H9.60227L12.8068 19.5H11.6989L9.09091 12.1534H9.02273L6.41477 19.5ZM6.82386 16.0909H11.2898V17.0284H6.82386V16.0909Z" fill="#7C3AED"></path>
	<path d="M31.0568 19.5V10.7727H34.108C34.7159 10.7727 35.2173 10.8778 35.6122 11.0881C36.0071 11.2955 36.3011 11.5753 36.4943 11.9276C36.6875 12.277 36.7841 12.6648 36.7841 13.0909C36.7841 13.4659 36.7173 13.7756 36.5838 14.0199C36.4531 14.2642 36.2798 14.4574 36.0639 14.5994C35.8509 14.7415 35.6193 14.8466 35.3693 14.9148V15C35.6364 15.017 35.9048 15.1108 36.1747 15.2812C36.4446 15.4517 36.6705 15.696 36.8523 16.0142C37.0341 16.3324 37.125 16.7216 37.125 17.1818C37.125 17.6193 37.0256 18.0128 36.8267 18.3622C36.6278 18.7116 36.3139 18.9886 35.8849 19.1932C35.456 19.3977 34.8977 19.5 34.2102 19.5H31.0568ZM32.1136 18.5625H34.2102C34.9006 18.5625 35.3906 18.429 35.6804 18.1619C35.973 17.892 36.1193 17.5653 36.1193 17.1818C36.1193 16.8864 36.044 16.6136 35.8935 16.3636C35.7429 16.1108 35.5284 15.9091 35.25 15.7585C34.9716 15.6051 34.642 15.5284 34.2614 15.5284H32.1136V18.5625ZM32.1136 14.608H34.0739C34.392 14.608 34.679 14.5455 34.9347 14.4205C35.1932 14.2955 35.3977 14.1193 35.5483 13.892C35.7017 13.6648 35.7784 13.3977 35.7784 13.0909C35.7784 12.7074 35.6449 12.3821 35.3778 12.1151C35.1108 11.8452 34.6875 11.7102 34.108 11.7102H32.1136V14.608Z" fill="#7C3AED"></path>
	<path d="M29.5 15.9912C29.5 19.1823 28.3141 22.0735 26.636 24.1634C24.9717 26.236 22.8828 27.4539 21.0564 27.4904C17.0429 26.0363 13.5 21.8714 13.5 15.4912C13.5 12.307 14.7785 9.28487 16.4533 7.05632C17.2895 5.94357 18.2145 5.04236 19.1094 4.42361C20.0001 3.80765 20.8187 3.50018 21.4683 3.4914C23.3847 3.72961 25.3855 5.19258 26.9273 7.47345C28.4683 9.75297 29.5 12.781 29.5 15.9912Z" class="fill-purple-50 dark:fill-darkBlue-900" stroke="#A78BFA"></path>
</svg>