<svg width="43" height="30" viewBox="0 0 43 30" fill="none" xmlns="http://www.w3.org/2000/svg">
	<mask id="mask-2">
		<rect x="0" y="0" width="100%" height="100%" fill="white"/>
		<circle cx="28" cy="15" r="14.5" fill="black"></circle>	
	</mask>
	<rect mask="url(#mask-2)" width="100%" height="100%" fill="#B4A5FC" fill-opacity="0.3"></rect>
	<circle cx="28" cy="15" r="14.5" stroke="#A78BFA"></circle>
	<circle cx="15" cy="15" r="14.5" stroke="#A78BFA"></circle>
	<path d="M6.41477 19H5.30682L8.51136 10.2727H9.60227L12.8068 19H11.6989L9.09091 11.6534H9.02273L6.41477 19ZM6.82386 15.5909H11.2898V16.5284H6.82386V15.5909Z" fill="#7C3AED"></path>
	<path d="M31.0568 19V10.2727H34.108C34.7159 10.2727 35.2173 10.3778 35.6122 10.5881C36.0071 10.7955 36.3011 11.0753 36.4943 11.4276C36.6875 11.777 36.7841 12.1648 36.7841 12.5909C36.7841 12.9659 36.7173 13.2756 36.5838 13.5199C36.4531 13.7642 36.2798 13.9574 36.0639 14.0994C35.8509 14.2415 35.6193 14.3466 35.3693 14.4148V14.5C35.6364 14.517 35.9048 14.6108 36.1747 14.7812C36.4446 14.9517 36.6705 15.196 36.8523 15.5142C37.0341 15.8324 37.125 16.2216 37.125 16.6818C37.125 17.1193 37.0256 17.5128 36.8267 17.8622C36.6278 18.2116 36.3139 18.4886 35.8849 18.6932C35.456 18.8977 34.8977 19 34.2102 19H31.0568ZM32.1136 18.0625H34.2102C34.9006 18.0625 35.3906 17.929 35.6804 17.6619C35.973 17.392 36.1193 17.0653 36.1193 16.6818C36.1193 16.3864 36.044 16.1136 35.8935 15.8636C35.7429 15.6108 35.5284 15.4091 35.25 15.2585C34.9716 15.1051 34.642 15.0284 34.2614 15.0284H32.1136V18.0625ZM32.1136 14.108H34.0739C34.392 14.108 34.679 14.0455 34.9347 13.9205C35.1932 13.7955 35.3977 13.6193 35.5483 13.392C35.7017 13.1648 35.7784 12.8977 35.7784 12.5909C35.7784 12.2074 35.6449 11.8821 35.3778 11.6151C35.1108 11.3452 34.6875 11.2102 34.108 11.2102H32.1136V14.108Z" fill="#7C3AED"></path>
</svg>